<svg width="77" height="77" viewBox="0 0 77 77" fill="none" xmlns="http://www.w3.org/2000/svg">
<path d="M77 38.5C77 38.0487 76.9868 37.6106 76.9601 37.1724C76.8809 34.48 76.4843 31.8063 75.7785 29.2068C75.5396 28.304 75.2607 27.4146 74.9554 26.5517C73.9659 23.7382 72.623 21.0615 70.9594 18.5861C70.3487 17.67 69.685 16.7805 68.9946 15.9309C62.1966 7.5274 51.9639 2.64782 41.1551 2.65504C40.2657 2.65504 39.3762 2.68166 38.5 2.76122V74.2387C39.3762 74.3184 40.2657 74.3449 41.1551 74.3449C51.964 74.3523 62.1968 69.4725 68.9946 61.069C69.6939 60.2177 70.3496 59.3314 70.9594 58.4139C72.623 55.9384 73.9659 53.2619 74.9554 50.4483C75.2607 49.5853 75.5396 48.6959 75.7785 47.7931C76.4843 45.1936 76.8809 42.52 76.9601 39.8275C76.9868 39.3895 77 38.9514 77 38.5Z" fill="#6F480E"/>
<path d="M70.9591 58.414H58.4133C57.6802 58.414 57.0857 59.0083 57.0857 59.7416C57.0857 60.4749 57.68 61.0693 58.4133 61.0693H68.9942C69.6937 60.2177 70.3494 59.3315 70.9591 58.414Z" fill="#C08935"/>
<path d="M70.9591 18.5863C70.3483 17.6702 69.6847 16.7807 68.9942 15.9311H58.4133C57.6802 15.9311 57.0857 16.5255 57.0857 17.2588C57.0857 17.9919 57.68 18.5864 58.4133 18.5864H70.9591V18.5863Z" fill="#C08935"/>
<path d="M75.7788 47.7932H57.8298C57.0967 47.7932 56.5022 48.3876 56.5022 49.1209C56.5022 49.854 57.0965 50.4485 57.8298 50.4485H74.9557C75.261 49.5854 75.5398 48.696 75.7788 47.7932Z" fill="#C08935"/>
<path d="M76.9998 38.5001C76.9998 38.0488 76.9866 37.6107 76.96 37.1725H66.3128C65.5796 37.1725 64.9851 37.7668 64.9851 38.5001C64.9851 39.2334 65.5795 39.8278 66.3128 39.8278H76.96C76.9866 39.3895 76.9998 38.9514 76.9998 38.5001Z" fill="#C08935"/>
<path d="M75.7788 29.2071C75.5398 28.3043 75.261 27.4149 74.9557 26.5519H57.8298C57.0967 26.5519 56.5022 27.1463 56.5022 27.8796C56.5022 28.6129 57.0965 29.2072 57.8298 29.2072H75.7788V29.2071Z" fill="#C08935"/>
<path d="M35.8449 2.65514C55.6414 2.65514 71.6897 18.7034 71.6897 38.5C71.6897 58.2966 55.6414 74.3448 35.8449 74.3448C16.0483 74.3448 0 58.2966 0 38.5C0 18.7034 16.0483 2.65514 35.8449 2.65514Z" fill="#F4CB45"/>
<path d="M35.8447 13.2759C21.9139 13.2759 10.6206 24.5692 10.6206 38.5C10.6206 52.4309 21.9137 63.7242 35.8447 63.7242C49.7757 63.7242 61.0688 52.4309 61.0688 38.5C61.0531 24.5757 49.7691 13.2917 35.8447 13.2759Z" fill="#EBA53A"/>
<path d="M35.8455 67.7069C35.494 67.7122 35.1574 67.8497 34.9028 68.0919C34.6581 68.3451 34.5202 68.6825 34.5178 69.0346C34.5196 69.2081 34.5556 69.3797 34.6235 69.5396C34.6911 69.7004 34.7855 69.8484 34.9028 69.9772C35.2826 70.3601 35.8564 70.4753 36.3545 70.2685C36.8526 70.0618 37.1761 69.574 37.173 69.0347C37.17 68.9459 37.1611 68.8573 37.1464 68.7696C37.1316 68.6864 37.1047 68.6058 37.0666 68.5303C37.0375 68.4457 36.9972 68.3652 36.9468 68.2911C36.8943 68.2249 36.8411 68.1589 36.788 68.0921C36.5334 67.8497 36.1968 67.7122 35.8455 67.7069Z" fill="#F4DF8B"/>
<path d="M35.8455 6.63802C35.494 6.64328 35.1574 6.78074 34.9028 7.02301C34.6581 7.27612 34.5202 7.6136 34.5178 7.96566C34.5196 8.13921 34.5556 8.31081 34.6235 8.47067C34.6911 8.63144 34.7855 8.77942 34.9028 8.90831C35.2826 9.2912 35.8564 9.40639 36.3545 9.19961C36.8526 8.99282 37.1761 8.50511 37.173 7.96581C37.17 7.87693 37.1611 7.78835 37.1464 7.70067C37.1316 7.61751 37.1047 7.5369 37.0666 7.4614C37.0375 7.37673 36.9972 7.29627 36.9468 7.22213C36.8943 7.15596 36.8411 7.08994 36.788 7.02317C36.5334 6.78074 36.1968 6.64328 35.8455 6.63802Z" fill="#F4DF8B"/>
<path d="M27.946 66.6716C27.7691 66.6703 27.5935 66.7017 27.428 66.7643C27.2692 66.8337 27.125 66.933 27.0035 67.0566C26.49 67.575 26.49 68.4103 27.0035 68.9287C27.1215 69.0564 27.2665 69.1561 27.428 69.2204C27.9257 69.4188 28.4936 69.3044 28.8755 68.9288C29.1299 68.6838 29.2736 68.3459 29.2736 67.9928C29.2736 67.6397 29.13 67.3018 28.8755 67.0568C28.631 66.8073 28.2953 66.6683 27.946 66.6716Z" fill="#F4DF8B"/>
<path d="M43.7442 7.67387C43.3907 7.68093 43.0533 7.82335 42.8016 8.07195C42.2881 8.59034 42.2881 9.42561 42.8016 9.94401C43.3338 10.4353 44.1543 10.4353 44.6866 9.94401C44.7508 9.88731 44.8048 9.82009 44.846 9.74504C44.8949 9.6727 44.9392 9.59736 44.9789 9.51946C45.0074 9.43704 45.0295 9.35252 45.0451 9.26665C45.0671 9.18002 45.0761 9.09069 45.0717 9.00151C45.0752 8.65216 44.9361 8.31648 44.6867 8.07195C44.5664 7.94066 44.416 7.8405 44.2485 7.78019C44.0892 7.71176 43.9178 7.67552 43.7442 7.67387Z" fill="#F4DF8B"/>
<path d="M20.5776 63.6186C20.4049 63.6157 20.2333 63.6472 20.0726 63.7112C19.9123 63.7849 19.7646 63.8834 19.635 64.003C19.5777 64.0662 19.5245 64.1328 19.4756 64.2027C19.4252 64.2766 19.3849 64.3567 19.3557 64.4412C19.3175 64.5166 19.2909 64.5972 19.2766 64.6805C19.261 64.7683 19.2521 64.8572 19.25 64.9462C19.252 65.1196 19.2877 65.2909 19.3557 65.4505C19.4771 65.7836 19.7395 66.0461 20.0726 66.1674C20.3149 66.2733 20.584 66.3011 20.8428 66.2471C20.926 66.2324 21.0066 66.2055 21.0821 66.1674C21.1667 66.1382 21.2472 66.0979 21.3213 66.0476C21.3875 65.9945 21.4535 65.9418 21.5203 65.8887C21.6373 65.7594 21.7316 65.6113 21.7991 65.4505C21.8736 65.293 21.91 65.1202 21.9054 64.9462C21.903 64.8571 21.8942 64.7683 21.8788 64.6805C21.8641 64.5973 21.8372 64.5167 21.7991 64.4412C21.7699 64.3567 21.7296 64.2766 21.6793 64.2027C21.6268 64.1359 21.5735 64.0698 21.5204 64.003C21.4571 63.9463 21.3908 63.8932 21.3215 63.8442C21.2448 63.7947 21.1648 63.7503 21.0822 63.7112C21.0043 63.683 20.9243 63.6607 20.8429 63.6445C20.756 63.623 20.6667 63.6142 20.5776 63.6186Z" fill="#F4DF8B"/>
<path d="M51.1122 10.7271C50.7591 10.7236 50.4194 10.8624 50.1697 11.1121C49.9201 11.3617 49.7813 11.7014 49.7847 12.0546C49.7865 12.228 49.8225 12.3992 49.8905 12.5588C49.9514 12.723 50.0466 12.8724 50.1697 12.9969C50.5511 13.3744 51.1225 13.4845 51.6167 13.2757C51.7777 13.2086 51.9259 13.1143 52.0549 12.9969C52.5683 12.4734 52.5683 11.6353 52.0549 11.1119C51.9257 10.9948 51.7776 10.9005 51.6167 10.8331C51.4571 10.7651 51.2856 10.7292 51.1122 10.7271Z" fill="#F4DF8B"/>
<path d="M14.2585 58.7593C13.9037 58.7605 13.5643 58.904 13.3159 59.1574C13.2486 59.2146 13.1904 59.2816 13.1434 59.3564C13.1032 59.4232 13.0636 59.5029 13.0241 59.5826C12.994 59.6644 12.9718 59.7488 12.9573 59.8348C12.9354 59.9169 12.9265 60.002 12.9307 60.087C12.9292 60.264 12.9609 60.4396 13.0241 60.6049C13.191 61.017 13.5548 61.3172 13.9911 61.4028C14.4274 61.4883 14.8775 61.348 15.1879 61.0295C15.3159 60.9117 15.4156 60.7666 15.4797 60.6049C15.5467 60.4404 15.5828 60.2647 15.586 60.087C15.5839 60.0023 15.575 59.9181 15.5594 59.8348C15.5328 59.7414 15.5063 59.6617 15.4797 59.5826C15.4401 59.5029 15.4 59.4232 15.3604 59.3564C15.3133 59.2816 15.2553 59.2146 15.1879 59.1574C15.0699 59.0294 14.9246 58.9297 14.7626 58.8657C14.6035 58.7972 14.4321 58.7611 14.2585 58.7593Z" fill="#F4DF8B"/>
<path d="M57.431 15.5862C57.2585 15.5836 57.0871 15.6152 56.9268 15.6788C56.7677 15.748 56.6234 15.8473 56.5022 15.9712C56.2461 16.2177 56.102 16.5583 56.1035 16.9138C56.1056 17.0872 56.1417 17.2587 56.2099 17.4181C56.3526 17.7371 56.6078 17.9923 56.9268 18.135C57.4244 18.3321 57.9915 18.2175 58.3737 17.8426C58.623 17.5982 58.7621 17.2629 58.7587 16.9137C58.7623 16.5606 58.6235 16.2208 58.3737 15.971C58.1254 15.7191 57.7848 15.58 57.431 15.5862Z" fill="#F4DF8B"/>
<path d="M9.39928 52.4398C9.22587 52.4419 9.05443 52.478 8.89502 52.5461C8.73425 52.6136 8.58611 52.7079 8.45678 52.8249C8.40369 52.8917 8.35105 52.9579 8.29797 53.0239C8.24758 53.0979 8.20728 53.1783 8.1781 53.2632C8.14005 53.3385 8.11314 53.4191 8.0984 53.5024C8.08321 53.5901 8.07433 53.6787 8.07178 53.7676C8.07704 54.119 8.2145 54.4556 8.45678 54.7102C8.58596 54.8275 8.7341 54.9221 8.89502 54.9897C9.21565 55.1355 9.58365 55.1355 9.90429 54.9897C10.0684 54.9283 10.2177 54.8331 10.3425 54.7102C10.5847 54.4556 10.722 54.119 10.7269 53.7676C10.7244 53.4157 10.5868 53.0783 10.3425 52.8249C10.2176 52.7023 10.0682 52.6074 9.90429 52.5461C9.74442 52.4778 9.57283 52.4417 9.39928 52.4398Z" fill="#F4DF8B"/>
<path d="M62.2902 21.9052C61.6641 21.9113 61.1292 22.358 61.0116 22.9729C60.894 23.5879 61.2262 24.2004 61.8058 24.4372C62.3854 24.6739 63.0515 24.4692 63.3981 23.9476C63.7446 23.4262 63.6754 22.7328 63.2327 22.29C62.9781 22.0479 62.6415 21.9104 62.2902 21.9052Z" fill="#F4DF8B"/>
<path d="M6.34578 45.0718C5.99491 45.0733 5.65954 45.2169 5.41621 45.4699C5.16701 45.7146 5.02805 46.0503 5.03181 46.3995C5.03046 46.5763 5.06189 46.752 5.12445 46.9174C5.18882 47.0789 5.28853 47.2241 5.41621 47.342C5.4705 47.4089 5.53863 47.4633 5.61593 47.5014C5.68631 47.5534 5.76196 47.5979 5.84152 47.6343C5.92333 47.6643 6.0077 47.6864 6.09372 47.7005C6.48308 47.7805 6.88763 47.68 7.19443 47.4274C7.50123 47.1747 7.67734 46.7969 7.67343 46.3995C7.67779 46.3145 7.66876 46.2295 7.64681 46.1473C7.63282 46.0612 7.61071 45.9769 7.58063 45.8951C7.54048 45.8153 7.50093 45.7356 7.46077 45.6695C7.41415 45.5943 7.35595 45.5269 7.28827 45.4697C7.03998 45.2165 6.70055 45.0732 6.34578 45.0718Z" fill="#F4DF8B"/>
<path d="M65.3439 29.2737C64.9908 29.2703 64.6511 29.4091 64.4014 29.6587C64.1518 29.9084 64.013 30.2481 64.0164 30.6012C64.013 30.9503 64.1521 31.2858 64.4014 31.5302C64.9233 32.0352 65.7516 32.0352 66.2735 31.5302C66.5264 31.2871 66.6701 30.9521 66.6714 30.6012C66.6702 30.2465 66.5267 29.907 66.2735 29.6586C66.0289 29.4094 65.6933 29.2703 65.3439 29.2737Z" fill="#F4DF8B"/>
<path d="M5.31067 37.1724C5.13697 37.1745 4.96537 37.2106 4.80566 37.2787C4.64504 37.3462 4.49721 37.4405 4.36802 37.5574C4.24786 37.6843 4.15311 37.833 4.0886 37.9956C3.94768 38.3173 3.94768 38.6832 4.0886 39.0049C4.15612 39.1656 4.25057 39.3136 4.36802 39.4425C4.49691 39.5598 4.64489 39.6544 4.80551 39.7219C5.129 39.8541 5.49144 39.8541 5.81478 39.7219C5.9757 39.6544 6.12398 39.56 6.25317 39.4425C6.37017 39.3135 6.46447 39.1655 6.53199 39.005C6.67381 38.6835 6.67381 38.3173 6.53199 37.9958C6.46748 37.8335 6.37288 37.6847 6.25317 37.5575C6.12383 37.4405 5.9757 37.3462 5.81493 37.2787C5.65552 37.2107 5.48422 37.1746 5.31067 37.1724Z" fill="#F4DF8B"/>
<path d="M66.3798 37.1724C65.7537 37.1785 65.2188 37.6252 65.1012 38.2401C64.9836 38.8551 65.3158 39.4676 65.8954 39.7043C66.475 39.941 67.1411 39.7364 67.4877 39.2148C67.8344 38.6933 67.765 38 67.3223 37.5572C67.0678 37.3151 66.7313 37.1776 66.3798 37.1724Z" fill="#F4DF8B"/>
<path d="M6.34578 29.2737C5.99492 29.2736 5.65849 29.4139 5.4117 29.6632C5.16491 29.9126 5.02805 30.2503 5.03181 30.6012C5.03061 30.9539 5.16882 31.2926 5.41621 31.5439C5.47742 31.6034 5.54435 31.6568 5.61593 31.7033C5.68677 31.7508 5.76241 31.7908 5.84152 31.8225C5.92288 31.8568 6.0074 31.8834 6.09372 31.9022C6.52655 31.9829 6.97156 31.8493 7.28843 31.5439C7.3531 31.479 7.41085 31.4078 7.46093 31.3312C7.50108 31.265 7.54063 31.1853 7.58079 31.1056C7.61072 31.0238 7.63282 30.9394 7.64696 30.8534C7.66892 30.7713 7.67779 30.6862 7.67358 30.6012C7.67704 30.2481 7.53823 29.9084 7.28858 29.6587C7.03893 29.4091 6.6989 29.2703 6.34578 29.2737Z" fill="#F4DF8B"/>
<path d="M65.3441 45.0718C64.9893 45.073 64.6499 45.2165 64.4014 45.4699C64.1521 45.7145 64.013 46.0501 64.0164 46.3994C64.0128 46.7525 64.1516 47.0923 64.4014 47.3421C64.9287 47.8334 65.7462 47.8334 66.2735 47.3421C66.5269 47.0938 66.6702 46.7542 66.6714 46.3994C66.6544 45.6735 66.07 45.0891 65.3441 45.0718Z" fill="#F4DF8B"/>
<path d="M9.39935 21.9052C9.22595 21.9073 9.05451 21.9434 8.89509 22.0115C8.73432 22.079 8.58619 22.1733 8.45685 22.2903C7.94342 22.8138 7.94342 23.652 8.45685 24.1753C8.58604 24.2926 8.73417 24.3872 8.89509 24.4547C9.21858 24.5869 9.58103 24.5869 9.90437 24.4547C10.0684 24.3934 10.2178 24.2982 10.3425 24.1753C10.855 23.6515 10.855 22.8141 10.3425 22.2903C10.2175 22.1678 10.0681 22.0729 9.90422 22.0115C9.7445 21.9434 9.5729 21.9073 9.39935 21.9052Z" fill="#F4DF8B"/>
<path d="M62.2902 52.4397C61.6641 52.4459 61.1292 52.8926 61.0116 53.5075C60.894 54.1225 61.2262 54.735 61.8058 54.9717C62.3854 55.2084 63.0515 55.0038 63.3981 54.4822C63.7446 53.9608 63.6754 53.2673 63.2327 52.8246C62.9781 52.5823 62.6415 52.4449 62.2902 52.4397Z" fill="#F4DF8B"/>
<path d="M14.2582 15.5862C14.169 15.5818 14.0797 15.5909 13.9931 15.6128C13.9072 15.6285 13.8227 15.6506 13.7403 15.679C13.6612 15.7191 13.5944 15.7587 13.5147 15.7988C13.4422 15.8489 13.3756 15.9067 13.3157 15.9713C13.1919 16.0927 13.0928 16.2369 13.024 16.3959C12.9608 16.5612 12.9291 16.7368 12.9306 16.9138C12.928 17.0865 12.9596 17.2579 13.024 17.4181C13.0928 17.5772 13.1919 17.7213 13.3157 17.8426C13.3757 17.9073 13.4423 17.9652 13.5147 18.0157C13.5944 18.0553 13.6612 18.0954 13.7403 18.135C13.82 18.1616 13.9134 18.1881 13.9931 18.2147C14.2516 18.269 14.5206 18.2412 14.7625 18.135C15.0818 17.9929 15.3373 17.7374 15.4794 17.4181C15.5478 17.2587 15.5839 17.0872 15.5857 16.9138C15.5839 16.7359 15.5478 16.5601 15.4794 16.3959C15.4155 16.2342 15.3158 16.0889 15.1876 15.9713C15.066 15.8476 14.9216 15.7483 14.7623 15.679C14.6022 15.6151 14.4307 15.5836 14.2582 15.5862Z" fill="#F4DF8B"/>
<path d="M57.4318 58.7593C57.2584 58.7611 57.0869 58.7972 56.9275 58.8656C56.6082 59.0077 56.3527 59.2632 56.2106 59.5825C56.1425 59.7421 56.1064 59.9134 56.1043 60.0868C56.1029 60.4421 56.247 60.7828 56.5029 61.0294C56.7484 61.2827 57.086 61.4256 57.4387 61.4256C57.7913 61.4256 58.129 61.2827 58.3744 61.0294C58.6242 60.7798 58.763 60.44 58.7594 60.0868C58.7629 59.7374 58.6238 59.4017 58.3744 59.1572C58.1276 58.9017 57.7871 58.7579 57.4318 58.7593Z" fill="#F4DF8B"/>
<path d="M20.5782 10.7271C20.4045 10.7292 20.2329 10.7653 20.0732 10.8334C19.9108 10.8975 19.7624 10.9921 19.6357 11.1122C19.5753 11.1773 19.5217 11.2486 19.4763 11.3249C19.4235 11.3926 19.3829 11.4688 19.3565 11.5505C19.3163 11.6296 19.2895 11.7148 19.2773 11.8027C19.2617 11.8858 19.2528 11.9702 19.2507 12.0549C19.2557 12.4063 19.3932 12.7431 19.6357 12.9975C19.7645 13.115 19.9125 13.2093 20.0732 13.2764C20.3153 13.3825 20.5845 13.4103 20.8434 13.3561C20.9267 13.3419 21.0074 13.3149 21.0826 13.2762C21.1673 13.2473 21.2478 13.2072 21.3219 13.1569C21.3914 13.1078 21.4579 13.0545 21.521 12.9974C21.6437 12.8726 21.7388 12.7232 21.7999 12.5591C21.8743 12.4017 21.9107 12.2289 21.9062 12.0549C21.9038 11.9702 21.8949 11.886 21.8796 11.8027C21.8668 11.7148 21.8399 11.6297 21.7999 11.5505C21.7734 11.4688 21.7328 11.3926 21.68 11.3249C21.6275 11.2452 21.5743 11.179 21.5212 11.1122C21.4544 11.0591 21.3882 11.0059 21.3222 10.9528C21.2482 10.9026 21.1678 10.8624 21.0829 10.8336C21.0076 10.7955 20.927 10.7686 20.8437 10.7538C20.7557 10.7384 20.6671 10.7295 20.5782 10.7271Z" fill="#F4DF8B"/>
<path d="M51.1119 63.6186C50.9376 63.6137 50.7647 63.65 50.6069 63.7243C50.1013 63.9159 49.7717 64.4057 49.7843 64.9462C49.7862 65.1196 49.822 65.2909 49.89 65.4505C49.9575 65.6114 50.052 65.7595 50.1693 65.8887C50.557 66.2537 51.1205 66.3623 51.6162 66.1675C51.777 66.1 51.9251 66.0057 52.0544 65.8887C52.5679 65.3649 52.5679 64.5268 52.0544 64.003C51.9272 63.8832 51.7786 63.7887 51.6162 63.7241C51.4587 63.6498 51.2859 63.6137 51.1119 63.6186Z" fill="#F4DF8B"/>
<path d="M27.9462 7.67382C27.5914 7.67502 27.252 7.8185 27.0036 8.0719C26.8842 8.19718 26.7854 8.3408 26.7112 8.49721C26.6474 8.65753 26.6159 8.82897 26.6186 9.00147C26.6172 9.17833 26.6486 9.35398 26.7112 9.51941C26.7854 9.67567 26.884 9.81899 27.0036 9.94397C27.3173 10.255 27.7651 10.3894 28.1983 10.3023C28.2841 10.2879 28.3687 10.2655 28.4505 10.2356C28.5302 10.196 28.6099 10.1565 28.6761 10.1163C28.7511 10.0695 28.8185 10.0113 28.8758 9.94381C29.0035 9.82576 29.1032 9.68078 29.1675 9.51926C29.2346 9.35474 29.2707 9.17908 29.2739 9.00132C29.2721 8.82777 29.236 8.65647 29.1675 8.49706C29.1032 8.33539 29.0036 8.19011 28.8758 8.07175C28.8185 8.00438 28.7511 7.94618 28.6761 7.89926C28.6099 7.8597 28.5302 7.81955 28.4505 7.78C28.3708 7.75338 28.2917 7.72691 28.1983 7.70029C28.1151 7.6848 28.0309 7.67593 27.9462 7.67382Z" fill="#F4DF8B"/>
<path d="M43.7442 66.6716C43.5717 66.6691 43.4003 66.7005 43.2398 66.7643C43.0786 66.8368 42.9305 66.9356 42.8016 67.0566C42.2881 67.575 42.2881 68.4103 42.8016 68.9287C43.3287 69.4331 44.1595 69.4331 44.6866 68.9287C44.9359 68.684 45.0749 68.3485 45.0716 67.9991C45.0752 67.646 44.9364 67.3063 44.6866 67.0565C44.5625 66.9296 44.4133 66.8298 44.2484 66.7641C44.0882 66.7005 43.9169 66.6691 43.7442 66.6716Z" fill="#F4DF8B"/>
<mask id="mask0" mask-type="alpha" maskUnits="userSpaceOnUse" x="0" y="2" width="72" height="73">
<path d="M35.8449 2.65495C55.6414 2.65495 71.6897 18.7032 71.6897 38.4998C71.6897 58.2964 55.6414 74.3447 35.8449 74.3447C16.0483 74.3447 0 58.2964 0 38.4998C0 18.7032 16.0483 2.65495 35.8449 2.65495Z" fill="#F4CB45"/>
</mask>
<g mask="url(#mask0)">
<g style="mix-blend-mode:soft-light">
<path d="M15.3996 67.375L63.525 15.4001C53.9 -1.925 24.4609 -4.71161 7.70044 15.4001C-11.5504 38.5 3.85028 65.45 15.3996 67.375Z" fill="url(#paint0_linear)"/>
</g>
</g>
<path d="M31.0234 28.3574V40.6895H37.1895C38.0345 40.6895 38.8294 40.5319 39.5742 40.2168C40.319 39.8874 40.9707 39.4434 41.5293 38.8848C42.0879 38.3262 42.5247 37.6745 42.8398 36.9297C43.1693 36.1706 43.334 35.3685 43.334 34.5234C43.334 33.6784 43.1693 32.8835 42.8398 32.1387C42.5247 31.3796 42.0879 30.7207 41.5293 30.1621C40.9707 29.6035 40.319 29.1667 39.5742 28.8516C38.8294 28.5221 38.0345 28.3574 37.1895 28.3574H31.0234ZM31.0234 53H24.8574V22.1914H37.1895C38.321 22.1914 39.4095 22.3418 40.4551 22.6426C41.5007 22.929 42.4746 23.3444 43.377 23.8887C44.2936 24.4186 45.1243 25.0632 45.8691 25.8223C46.6283 26.5671 47.2728 27.3978 47.8027 28.3145C48.347 29.2311 48.7624 30.2122 49.0488 31.2578C49.3496 32.3034 49.5 33.3919 49.5 34.5234C49.5 35.5833 49.3639 36.6146 49.0918 37.6172C48.834 38.6198 48.4544 39.5723 47.9531 40.4746C47.4661 41.377 46.8646 42.2077 46.1484 42.9668C45.4323 43.7259 44.6302 44.3848 43.7422 44.9434L47.1582 53H40.6055L37.9199 46.791L31.0234 46.834V53Z" fill="#FAEEAC"/>
<defs>
<linearGradient id="paint0_linear" x1="42.3496" y1="44.275" x2="17.3246" y2="25.025" gradientUnits="userSpaceOnUse">
<stop stop-color="white"/>
<stop offset="1" stop-color="white" stop-opacity="0"/>
</linearGradient>
</defs>
</svg>
