<svg width="80" height="38" viewBox="0 0 80 38" fill="none" xmlns="http://www.w3.org/2000/svg">
<path d="M22.0752 24.1343C21.0469 24.1343 20.2344 23.8212 19.6377 23.1949C19.0452 22.5686 18.749 21.699 18.749 20.586C18.749 19.4646 19.0241 18.5738 19.5742 17.9136C20.1286 17.2535 20.8713 16.9234 21.8022 16.9234C22.674 16.9234 23.3638 17.2112 23.8716 17.7867C24.3794 18.358 24.6333 19.1133 24.6333 20.0528V20.7193H19.8408C19.862 21.536 20.0672 22.156 20.4565 22.5792C20.8501 23.0023 21.4023 23.2139 22.1133 23.2139C22.8623 23.2139 23.6029 23.0574 24.335 22.7442V23.6837C23.9626 23.8445 23.6092 23.9587 23.2749 24.0264C22.9448 24.0984 22.5449 24.1343 22.0752 24.1343ZM21.7896 17.8057C21.231 17.8057 20.7845 17.9877 20.4502 18.3516C20.1201 18.7156 19.9255 19.2191 19.8662 19.8624H23.5034C23.5034 19.198 23.3553 18.6902 23.0591 18.3389C22.7629 17.9835 22.3397 17.8057 21.7896 17.8057ZM27.6738 20.148V24.0074H26.5947V14.7271H29.1401C30.2785 14.7271 31.1185 14.945 31.6602 15.3809C32.2061 15.8168 32.479 16.4727 32.479 17.3487C32.479 18.5759 31.8569 19.4053 30.6128 19.837L33.1328 24.0074H31.8569L29.6099 20.148H27.6738ZM27.6738 19.2213H29.1528C29.9146 19.2213 30.4731 19.071 30.8286 18.7706C31.1841 18.4659 31.3618 18.011 31.3618 17.4058C31.3618 16.7922 31.1799 16.35 30.8159 16.0792C30.4562 15.8083 29.8765 15.6729 29.0767 15.6729H27.6738V19.2213ZM39.8677 21.5381C39.8677 22.3549 39.5715 22.9918 38.979 23.4488C38.3866 23.9058 37.5825 24.1343 36.5669 24.1343C35.4666 24.1343 34.6203 23.9926 34.0278 23.709V22.668C34.4087 22.8288 34.8234 22.9558 35.272 23.0489C35.7205 23.142 36.1649 23.1885 36.605 23.1885C37.3244 23.1885 37.866 23.0531 38.23 22.7823C38.5939 22.5072 38.7759 22.1264 38.7759 21.6397C38.7759 21.3181 38.7103 21.0557 38.5791 20.8526C38.4521 20.6452 38.2363 20.4548 37.9316 20.2813C37.6312 20.1078 37.172 19.911 36.5542 19.691C35.6909 19.3821 35.0731 19.016 34.7007 18.5928C34.3325 18.1697 34.1484 17.6174 34.1484 16.9361C34.1484 16.2209 34.4172 15.6518 34.9546 15.2286C35.492 14.8054 36.203 14.5938 37.0874 14.5938C38.0099 14.5938 38.8584 14.7631 39.6328 15.1016L39.2964 16.0411C38.5304 15.7195 37.7856 15.5587 37.062 15.5587C36.4907 15.5587 36.0443 15.6814 35.7227 15.9268C35.401 16.1723 35.2402 16.5129 35.2402 16.9488C35.2402 17.2704 35.2995 17.5349 35.418 17.7422C35.5365 17.9454 35.7354 18.1337 36.0146 18.3072C36.2982 18.4765 36.7298 18.6648 37.3096 18.8721C38.2829 19.2191 38.9515 19.5915 39.3154 19.9893C39.6836 20.3871 39.8677 20.9034 39.8677 21.5381ZM49.1733 19.2784C49.1733 20.8103 48.7565 21.9825 47.9229 22.795C47.0934 23.6033 45.8979 24.0074 44.3364 24.0074H41.7656V14.7271H44.6094C46.0524 14.7271 47.1738 15.127 47.9736 15.9268C48.7734 16.7266 49.1733 17.8438 49.1733 19.2784ZM48.0308 19.3165C48.0308 18.1062 47.7261 17.1942 47.1167 16.5806C46.5116 15.967 45.6102 15.6602 44.4126 15.6602H42.8447V23.0743H44.1587C45.4451 23.0743 46.4121 22.759 47.0596 22.1285C47.707 21.4937 48.0308 20.5564 48.0308 19.3165ZM51.249 24.0074V14.7271H52.3281V23.0298H56.4224V24.0074H51.249Z" fill="white"/>
<rect x="0.519043" y="0.961853" width="76" height="36.0763" stroke="url(#paint0_radial)"/>
<defs>
<radialGradient id="paint0_radial" cx="0" cy="0" r="1" gradientUnits="userSpaceOnUse" gradientTransform="translate(38.519 19) rotate(151.001) scale(49.164 84.8642)">
<stop stop-color="white"/>
<stop offset="1" stop-color="white" stop-opacity="0"/>
</radialGradient>
</defs>
</svg>
