<svg width="146" height="23" viewBox="0 0 146 23" fill="none" xmlns="http://www.w3.org/2000/svg">
<path d="M7.41504 16.0079C7.23242 16.174 7.03597 16.3317 6.82568 16.4811C6.62093 16.625 6.40511 16.7522 6.17822 16.8629C5.95133 16.9681 5.71615 17.0511 5.47266 17.1119C5.2347 17.1783 4.99121 17.2115 4.74219 17.2115C4.19434 17.2115 3.67969 17.1147 3.19824 16.921C2.7168 16.7273 2.29346 16.4534 1.92822 16.0992C1.56852 15.7395 1.28353 15.3051 1.07324 14.796C0.86849 14.2814 0.766113 13.7059 0.766113 13.0695V8.1554H3.02393V13.0695C3.02393 13.3683 3.0682 13.6367 3.15674 13.8746C3.25081 14.1071 3.37533 14.3035 3.53027 14.464C3.68522 14.6245 3.86507 14.7462 4.06982 14.8292C4.28011 14.9122 4.50423 14.9537 4.74219 14.9537C4.97461 14.9537 5.1932 14.9012 5.39795 14.796C5.60824 14.6853 5.79085 14.5415 5.9458 14.3644C6.10075 14.1873 6.22249 13.9881 6.31104 13.7667C6.39958 13.5398 6.44385 13.3074 6.44385 13.0695V8.1554H8.70996V17.0455H8.16211L7.41504 16.0079ZM13.0509 17.0455H10.7848V8.1554H11.3327L12.0797 9.01868C12.445 8.68665 12.8573 8.43209 13.3166 8.255C13.7814 8.07239 14.2656 7.98108 14.7692 7.98108C15.3115 7.98108 15.8234 8.08622 16.3048 8.29651C16.7863 8.50126 17.2069 8.78625 17.5666 9.15149C17.9263 9.51119 18.2085 9.93453 18.4132 10.4215C18.6235 10.903 18.7287 11.4176 18.7287 11.9655V17.0455H16.4626V11.9655C16.4626 11.733 16.4183 11.5144 16.3297 11.3097C16.2412 11.0994 16.1195 10.9168 15.9645 10.7618C15.8096 10.6069 15.6297 10.4851 15.425 10.3966C15.2202 10.3081 15.0016 10.2638 14.7692 10.2638C14.5312 10.2638 14.3071 10.3081 14.0968 10.3966C13.8865 10.4851 13.7039 10.6069 13.549 10.7618C13.394 10.9168 13.2723 11.0994 13.1838 11.3097C13.0952 11.5144 13.0509 11.733 13.0509 11.9655V17.0455ZM23.3104 17.0455H20.928V5.14221H29.262V7.52454H23.3104V9.90686H26.8797V12.2892H23.3104V17.0455ZM33.0801 14.8707C33.1686 14.8984 33.2571 14.9178 33.3457 14.9288C33.4342 14.9344 33.5228 14.9371 33.6113 14.9371C33.8327 14.9371 34.0457 14.9067 34.2505 14.8458C34.4552 14.785 34.6461 14.6992 34.8232 14.5885C35.0058 14.4723 35.1663 14.3339 35.3047 14.1735C35.4485 14.0074 35.5648 13.8248 35.6533 13.6256L37.3135 15.2941C37.1032 15.5929 36.8597 15.8613 36.583 16.0992C36.3118 16.3372 36.0158 16.5392 35.6948 16.7052C35.3794 16.8712 35.0446 16.9957 34.6904 17.0787C34.3418 17.1673 33.9821 17.2115 33.6113 17.2115C32.986 17.2115 32.3966 17.0953 31.8432 16.8629C31.2954 16.6305 30.8139 16.3068 30.3989 15.8917C29.9894 15.4767 29.6657 14.9842 29.4277 14.4142C29.1898 13.8387 29.0708 13.2078 29.0708 12.5216C29.0708 11.8188 29.1898 11.1769 29.4277 10.5958C29.6657 10.0148 29.9894 9.51949 30.3989 9.10999C30.8139 8.70048 31.2954 8.38228 31.8432 8.1554C32.3966 7.92851 32.986 7.81506 33.6113 7.81506C33.9821 7.81506 34.3445 7.85933 34.6987 7.94788C35.0529 8.03642 35.3877 8.1637 35.7031 8.32971C36.0241 8.49573 36.3229 8.70048 36.5996 8.94397C36.8763 9.18193 37.1198 9.45032 37.3301 9.74915L33.0801 14.8707ZM34.2422 10.1974C34.137 10.1587 34.0319 10.1337 33.9267 10.1227C33.8271 10.1116 33.722 10.1061 33.6113 10.1061C33.3014 10.1061 33.0081 10.1642 32.7314 10.2804C32.4603 10.3911 32.2223 10.5516 32.0176 10.7618C31.8183 10.9721 31.6606 11.2267 31.5444 11.5255C31.4282 11.8188 31.3701 12.1508 31.3701 12.5216C31.3701 12.6046 31.3729 12.6987 31.3784 12.8038C31.3895 12.909 31.4033 13.0169 31.4199 13.1276C31.442 13.2327 31.4669 13.3351 31.4946 13.4347C31.5223 13.5343 31.5582 13.6228 31.6025 13.7003L34.2422 10.1974ZM47.3405 17.0455H46.7926L45.9127 15.8253C45.6969 16.019 45.4673 16.2016 45.2238 16.3732C44.9858 16.5392 44.734 16.6858 44.4684 16.8131C44.2028 16.9349 43.9288 17.0317 43.6466 17.1036C43.3699 17.1756 43.0877 17.2115 42.7999 17.2115C42.1746 17.2115 41.5853 17.0953 41.0319 16.8629C40.484 16.625 40.0026 16.2985 39.5875 15.8834C39.178 15.4628 38.8543 14.9676 38.6163 14.3976C38.3784 13.8221 38.2594 13.1967 38.2594 12.5216C38.2594 11.852 38.3784 11.2295 38.6163 10.6539C38.8543 10.0784 39.178 9.58036 39.5875 9.15979C40.0026 8.73922 40.484 8.40995 41.0319 8.172C41.5853 7.93404 42.1746 7.81506 42.7999 7.81506C42.9992 7.81506 43.2039 7.83167 43.4142 7.86487C43.63 7.89807 43.8375 7.95341 44.0368 8.03088C44.2415 8.10282 44.4324 8.19967 44.6095 8.32141C44.7866 8.44316 44.936 8.59257 45.0578 8.76965V4.61926H47.3405V17.0455ZM45.0578 12.5216C45.0578 12.2117 44.9969 11.9129 44.8751 11.6251C44.7589 11.3318 44.5984 11.0745 44.3937 10.8531C44.1889 10.6263 43.9482 10.4464 43.6715 10.3136C43.4004 10.1753 43.1098 10.1061 42.7999 10.1061C42.49 10.1061 42.1968 10.1614 41.9201 10.2721C41.6489 10.3828 41.4109 10.5433 41.2062 10.7535C41.007 10.9583 40.8493 11.2101 40.733 11.5089C40.6168 11.8077 40.5587 12.1453 40.5587 12.5216C40.5587 12.8481 40.6168 13.158 40.733 13.4513C40.8493 13.7446 41.007 14.0019 41.2062 14.2233C41.4109 14.4446 41.6489 14.6189 41.9201 14.7462C42.1968 14.8735 42.49 14.9371 42.7999 14.9371C43.1098 14.9371 43.4004 14.8707 43.6715 14.7379C43.9482 14.5996 44.1889 14.4197 44.3937 14.1984C44.5984 13.9715 44.7589 13.7142 44.8751 13.4264C44.9969 13.1331 45.0578 12.8315 45.0578 12.5216ZM52.9515 14.8707C53.04 14.8984 53.1285 14.9178 53.2171 14.9288C53.3056 14.9344 53.3942 14.9371 53.4827 14.9371C53.7041 14.9371 53.9171 14.9067 54.1219 14.8458C54.3266 14.785 54.5175 14.6992 54.6946 14.5885C54.8772 14.4723 55.0377 14.3339 55.1761 14.1735C55.32 14.0074 55.4362 13.8248 55.5247 13.6256L57.1849 15.2941C56.9746 15.5929 56.7311 15.8613 56.4544 16.0992C56.1832 16.3372 55.8872 16.5392 55.5662 16.7052C55.2508 16.8712 54.916 16.9957 54.5618 17.0787C54.2132 17.1673 53.8535 17.2115 53.4827 17.2115C52.8574 17.2115 52.268 17.0953 51.7146 16.8629C51.1668 16.6305 50.6854 16.3068 50.2703 15.8917C49.8608 15.4767 49.5371 14.9842 49.2991 14.4142C49.0612 13.8387 48.9422 13.2078 48.9422 12.5216C48.9422 11.8188 49.0612 11.1769 49.2991 10.5958C49.5371 10.0148 49.8608 9.51949 50.2703 9.10999C50.6854 8.70048 51.1668 8.38228 51.7146 8.1554C52.268 7.92851 52.8574 7.81506 53.4827 7.81506C53.8535 7.81506 54.216 7.85933 54.5701 7.94788C54.9243 8.03642 55.2591 8.1637 55.5745 8.32971C55.8955 8.49573 56.1943 8.70048 56.471 8.94397C56.7477 9.18193 56.9912 9.45032 57.2015 9.74915L52.9515 14.8707ZM54.1136 10.1974C54.0084 10.1587 53.9033 10.1337 53.7981 10.1227C53.6985 10.1116 53.5934 10.1061 53.4827 10.1061C53.1728 10.1061 52.8795 10.1642 52.6028 10.2804C52.3317 10.3911 52.0937 10.5516 51.889 10.7618C51.6897 10.9721 51.532 11.2267 51.4158 11.5255C51.2996 11.8188 51.2415 12.1508 51.2415 12.5216C51.2415 12.6046 51.2443 12.6987 51.2498 12.8038C51.2609 12.909 51.2747 13.0169 51.2913 13.1276C51.3134 13.2327 51.3383 13.3351 51.366 13.4347C51.3937 13.5343 51.4297 13.6228 51.4739 13.7003L54.1136 10.1974ZM60.9531 17.0455H58.687V8.1554H59.2348L59.9819 9.20959C60.3471 8.87756 60.7622 8.62301 61.227 8.44592C61.6919 8.26331 62.1733 8.172 62.6713 8.172H64.6718V10.4298H62.6713C62.4334 10.4298 62.2093 10.4741 61.999 10.5626C61.7887 10.6512 61.6061 10.7729 61.4511 10.9279C61.2962 11.0828 61.1744 11.2654 61.0859 11.4757C60.9974 11.686 60.9531 11.9101 60.9531 12.1481V17.0455ZM74.5079 17.0455H73.9601L73.0802 15.8253C72.8644 16.019 72.6347 16.2016 72.3912 16.3732C72.1533 16.5392 71.9015 16.6858 71.6359 16.8131C71.3702 16.9349 71.0963 17.0317 70.8141 17.1036C70.5374 17.1756 70.2552 17.2115 69.9674 17.2115C69.3421 17.2115 68.7527 17.1064 68.1993 16.8961C67.6515 16.6858 67.17 16.3815 66.755 15.983C66.3455 15.5791 66.0218 15.0865 65.7838 14.5055C65.5459 13.9244 65.4269 13.2631 65.4269 12.5216C65.4269 11.8299 65.5459 11.1962 65.7838 10.6207C66.0218 10.0397 66.3455 9.54163 66.755 9.12659C67.17 8.71155 67.6515 8.39058 68.1993 8.1637C68.7527 7.93127 69.3421 7.81506 69.9674 7.81506C70.2552 7.81506 70.5402 7.85103 70.8224 7.92297C71.1046 7.99491 71.3785 8.09452 71.6442 8.2218C71.9098 8.34908 72.1616 8.49849 72.3995 8.67004C72.643 8.84159 72.8699 9.02698 73.0802 9.2262L73.9601 8.172H74.5079V17.0455ZM72.2252 12.5216C72.2252 12.2117 72.1643 11.9129 72.0426 11.6251C71.9264 11.3318 71.7659 11.0745 71.5611 10.8531C71.3564 10.6263 71.1157 10.4464 70.839 10.3136C70.5678 10.1753 70.2773 10.1061 69.9674 10.1061C69.6575 10.1061 69.3642 10.1587 69.0875 10.2638C68.8164 10.3689 68.5784 10.5239 68.3736 10.7286C68.1744 10.9334 68.0167 11.1879 67.9005 11.4923C67.7843 11.7911 67.7262 12.1342 67.7262 12.5216C67.7262 12.909 67.7843 13.2548 67.9005 13.5592C68.0167 13.858 68.1744 14.1098 68.3736 14.3146C68.5784 14.5193 68.8164 14.6743 69.0875 14.7794C69.3642 14.8846 69.6575 14.9371 69.9674 14.9371C70.2773 14.9371 70.5678 14.8707 70.839 14.7379C71.1157 14.5996 71.3564 14.4197 71.5611 14.1984C71.7659 13.9715 71.9264 13.7142 72.0426 13.4264C72.1643 13.1331 72.2252 12.8315 72.2252 12.5216ZM78.8655 17.0455H76.5828V4.61926H78.8655V17.0455ZM83.5634 7.52454V12.2892H85.9457C86.2722 12.2892 86.5794 12.2283 86.8671 12.1066C87.1549 11.9793 87.4067 11.8077 87.6225 11.5919C87.8383 11.3761 88.0071 11.1243 88.1288 10.8365C88.2561 10.5433 88.3198 10.2334 88.3198 9.90686C88.3198 9.58036 88.2561 9.27323 88.1288 8.98547C88.0071 8.69218 87.8383 8.43762 87.6225 8.2218C87.4067 8.00598 87.1549 7.8372 86.8671 7.71545C86.5794 7.58818 86.2722 7.52454 85.9457 7.52454H83.5634ZM83.5634 17.0455H81.1811V5.14221H85.9457C86.3829 5.14221 86.8035 5.20032 87.2075 5.31653C87.6114 5.42721 87.9877 5.58769 88.3364 5.79797C88.6905 6.00273 89.0115 6.25175 89.2993 6.54504C89.5925 6.8328 89.8416 7.15377 90.0463 7.50793C90.2566 7.8621 90.4171 8.24117 90.5278 8.64514C90.644 9.04911 90.7021 9.46969 90.7021 9.90686C90.7021 10.3164 90.6495 10.7148 90.5444 11.1022C90.4448 11.4895 90.2981 11.8575 90.1044 12.2062C89.9163 12.5548 89.6839 12.8758 89.4072 13.1691C89.1305 13.4624 88.8206 13.7169 88.4775 13.9327L89.7973 17.0455H87.2656L86.228 14.6466L83.5634 14.6632V17.0455ZM95.8067 14.8707C95.8953 14.8984 95.9838 14.9178 96.0724 14.9288C96.1609 14.9344 96.2494 14.9371 96.338 14.9371C96.5593 14.9371 96.7724 14.9067 96.9771 14.8458C97.1819 14.785 97.3728 14.6992 97.5499 14.5885C97.7325 14.4723 97.893 14.3339 98.0313 14.1735C98.1752 14.0074 98.2914 13.8248 98.38 13.6256L100.04 15.2941C99.8299 15.5929 99.5864 15.8613 99.3097 16.0992C99.0385 16.3372 98.7424 16.5392 98.4215 16.7052C98.1061 16.8712 97.7713 16.9957 97.4171 17.0787C97.0685 17.1673 96.7088 17.2115 96.338 17.2115C95.7127 17.2115 95.1233 17.0953 94.5699 16.8629C94.0221 16.6305 93.5406 16.3068 93.1256 15.8917C92.7161 15.4767 92.3924 14.9842 92.1544 14.4142C91.9164 13.8387 91.7975 13.2078 91.7975 12.5216C91.7975 11.8188 91.9164 11.1769 92.1544 10.5958C92.3924 10.0148 92.7161 9.51949 93.1256 9.10999C93.5406 8.70048 94.0221 8.38228 94.5699 8.1554C95.1233 7.92851 95.7127 7.81506 96.338 7.81506C96.7088 7.81506 97.0712 7.85933 97.4254 7.94788C97.7796 8.03642 98.1144 8.1637 98.4298 8.32971C98.7508 8.49573 99.0496 8.70048 99.3263 8.94397C99.603 9.18193 99.8465 9.45032 100.057 9.74915L95.8067 14.8707ZM96.9688 10.1974C96.8637 10.1587 96.7586 10.1337 96.6534 10.1227C96.5538 10.1116 96.4487 10.1061 96.338 10.1061C96.0281 10.1061 95.7348 10.1642 95.4581 10.2804C95.1869 10.3911 94.949 10.5516 94.7442 10.7618C94.545 10.9721 94.3873 11.2267 94.2711 11.5255C94.1549 11.8188 94.0968 12.1508 94.0968 12.5216C94.0968 12.6046 94.0995 12.6987 94.1051 12.8038C94.1161 12.909 94.13 13.0169 94.1466 13.1276C94.1687 13.2327 94.1936 13.3351 94.2213 13.4347C94.249 13.5343 94.2849 13.6228 94.3292 13.7003L96.9688 10.1974ZM106.423 17.0455H101.243V14.7877H106.423C106.578 14.7877 106.711 14.7324 106.822 14.6217C106.932 14.511 106.988 14.3782 106.988 14.2233C106.988 14.0628 106.932 13.9576 106.822 13.9078C106.711 13.858 106.578 13.8331 106.423 13.8331H104.066C103.673 13.8331 103.305 13.7584 102.962 13.609C102.619 13.4596 102.32 13.2576 102.065 13.0031C101.811 12.743 101.609 12.4414 101.459 12.0983C101.315 11.7552 101.243 11.3872 101.243 10.9943C101.243 10.6014 101.315 10.2334 101.459 9.89026C101.609 9.54716 101.811 9.24833 102.065 8.99377C102.32 8.73922 102.619 8.54 102.962 8.39612C103.305 8.2467 103.673 8.172 104.066 8.172H108.656V10.4298H104.066C103.911 10.4298 103.778 10.4851 103.667 10.5958C103.557 10.7065 103.501 10.8393 103.501 10.9943C103.501 11.1547 103.557 11.2931 103.667 11.4093C103.778 11.52 103.911 11.5753 104.066 11.5753H106.423C106.81 11.5753 107.176 11.6417 107.519 11.7745C107.862 11.9018 108.161 12.0817 108.415 12.3141C108.67 12.5465 108.872 12.826 109.021 13.1525C109.171 13.479 109.245 13.8359 109.245 14.2233C109.245 14.6162 109.171 14.9842 109.021 15.3273C108.872 15.6648 108.67 15.9637 108.415 16.2238C108.161 16.4783 107.862 16.6803 107.519 16.8297C107.176 16.9736 106.81 17.0455 106.423 17.0455ZM114.333 14.8707C114.422 14.8984 114.511 14.9178 114.599 14.9288C114.688 14.9344 114.776 14.9371 114.865 14.9371C115.086 14.9371 115.299 14.9067 115.504 14.8458C115.709 14.785 115.9 14.6992 116.077 14.5885C116.259 14.4723 116.42 14.3339 116.558 14.1735C116.702 14.0074 116.818 13.8248 116.907 13.6256L118.567 15.2941C118.357 15.5929 118.113 15.8613 117.836 16.0992C117.565 16.3372 117.269 16.5392 116.948 16.7052C116.633 16.8712 116.298 16.9957 115.944 17.0787C115.595 17.1673 115.235 17.2115 114.865 17.2115C114.239 17.2115 113.65 17.0953 113.097 16.8629C112.549 16.6305 112.067 16.3068 111.652 15.8917C111.243 15.4767 110.919 14.9842 110.681 14.4142C110.443 13.8387 110.324 13.2078 110.324 12.5216C110.324 11.8188 110.443 11.1769 110.681 10.5958C110.919 10.0148 111.243 9.51949 111.652 9.10999C112.067 8.70048 112.549 8.38228 113.097 8.1554C113.65 7.92851 114.239 7.81506 114.865 7.81506C115.235 7.81506 115.598 7.85933 115.952 7.94788C116.306 8.03642 116.641 8.1637 116.956 8.32971C117.277 8.49573 117.576 8.70048 117.853 8.94397C118.13 9.18193 118.373 9.45032 118.583 9.74915L114.333 14.8707ZM115.496 10.1974C115.39 10.1587 115.285 10.1337 115.18 10.1227C115.08 10.1116 114.975 10.1061 114.865 10.1061C114.555 10.1061 114.261 10.1642 113.985 10.2804C113.714 10.3911 113.476 10.5516 113.271 10.7618C113.072 10.9721 112.914 11.2267 112.798 11.5255C112.682 11.8188 112.623 12.1508 112.623 12.5216C112.623 12.6046 112.626 12.6987 112.632 12.8038C112.643 12.909 112.657 13.0169 112.673 13.1276C112.695 13.2327 112.72 13.3351 112.748 13.4347C112.776 13.5343 112.812 13.6228 112.856 13.7003L115.496 10.1974ZM122.335 17.0455H120.069V8.1554H120.617L121.364 9.20959C121.729 8.87756 122.144 8.62301 122.609 8.44592C123.074 8.26331 123.555 8.172 124.053 8.172H126.054V10.4298H124.053C123.815 10.4298 123.591 10.4741 123.381 10.5626C123.171 10.6512 122.988 10.7729 122.833 10.9279C122.678 11.0828 122.556 11.2654 122.468 11.4757C122.379 11.686 122.335 11.9101 122.335 12.1481V17.0455ZM129.971 17.0455L126.585 8.1554H129.166L131.109 13.7003L133.043 8.1554H135.633L132.246 17.0455H129.971ZM140.106 14.8707C140.195 14.8984 140.283 14.9178 140.372 14.9288C140.461 14.9344 140.549 14.9371 140.638 14.9371C140.859 14.9371 141.072 14.9067 141.277 14.8458C141.482 14.785 141.672 14.6992 141.85 14.5885C142.032 14.4723 142.193 14.3339 142.331 14.1735C142.475 14.0074 142.591 13.8248 142.68 13.6256L144.34 15.2941C144.129 15.5929 143.886 15.8613 143.609 16.0992C143.338 16.3372 143.042 16.5392 142.721 16.7052C142.406 16.8712 142.071 16.9957 141.717 17.0787C141.368 17.1673 141.008 17.2115 140.638 17.2115C140.012 17.2115 139.423 17.0953 138.87 16.8629C138.322 16.6305 137.84 16.3068 137.425 15.8917C137.016 15.4767 136.692 14.9842 136.454 14.4142C136.216 13.8387 136.097 13.2078 136.097 12.5216C136.097 11.8188 136.216 11.1769 136.454 10.5958C136.692 10.0148 137.016 9.51949 137.425 9.10999C137.84 8.70048 138.322 8.38228 138.87 8.1554C139.423 7.92851 140.012 7.81506 140.638 7.81506C141.008 7.81506 141.371 7.85933 141.725 7.94788C142.079 8.03642 142.414 8.1637 142.729 8.32971C143.05 8.49573 143.349 8.70048 143.626 8.94397C143.903 9.18193 144.146 9.45032 144.356 9.74915L140.106 14.8707ZM141.268 10.1974C141.163 10.1587 141.058 10.1337 140.953 10.1227C140.853 10.1116 140.748 10.1061 140.638 10.1061C140.328 10.1061 140.034 10.1642 139.758 10.2804C139.487 10.3911 139.249 10.5516 139.044 10.7618C138.845 10.9721 138.687 11.2267 138.571 11.5255C138.454 11.8188 138.396 12.1508 138.396 12.5216C138.396 12.6046 138.399 12.6987 138.405 12.8038C138.416 12.909 138.43 13.0169 138.446 13.1276C138.468 13.2327 138.493 13.3351 138.521 13.4347C138.549 13.5343 138.585 13.6228 138.629 13.7003L141.268 10.1974Z" fill="white"/>
</svg>
