<svg width="146" height="42" viewBox="0 0 146 42" fill="none" xmlns="http://www.w3.org/2000/svg">
<path d="M4.73438 38.1949C3.70605 38.1949 2.89355 37.8818 2.29688 37.2555C1.70443 36.6292 1.4082 35.7596 1.4082 34.6466C1.4082 33.5252 1.68327 32.6344 2.2334 31.9742C2.78776 31.3141 3.53044 30.984 4.46143 30.984C5.33317 30.984 6.02295 31.2718 6.53076 31.8473C7.03857 32.4186 7.29248 33.174 7.29248 34.1134V34.7799H2.5C2.52116 35.5966 2.7264 36.2166 3.11572 36.6398C3.50928 37.0629 4.06152 37.2745 4.77246 37.2745C5.52148 37.2745 6.26204 37.118 6.99414 36.8048V37.7443C6.62174 37.9051 6.26839 38.0193 5.93408 38.087C5.604 38.159 5.2041 38.1949 4.73438 38.1949ZM4.44873 31.8663C3.89014 31.8663 3.44368 32.0483 3.10938 32.4122C2.7793 32.7762 2.58464 33.2797 2.52539 33.923H6.1626C6.1626 33.2586 6.01449 32.7508 5.71826 32.3995C5.42204 32.0441 4.99886 31.8663 4.44873 31.8663ZM10.333 34.2086V38.068H9.25391V28.7877H11.7993C12.9377 28.7877 13.7777 29.0057 14.3193 29.4415C14.8652 29.8774 15.1382 30.5333 15.1382 31.4093C15.1382 32.6365 14.5161 33.4659 13.272 33.8976L15.792 38.068H14.5161L12.269 34.2086H10.333ZM10.333 33.2819H11.812C12.5737 33.2819 13.1323 33.1316 13.4878 32.8312C13.8433 32.5265 14.021 32.0716 14.021 31.4664C14.021 30.8528 13.839 30.4106 13.4751 30.1398C13.1154 29.8689 12.5356 29.7335 11.7358 29.7335H10.333V33.2819ZM22.5269 35.5988C22.5269 36.4155 22.2306 37.0524 21.6382 37.5094C21.0457 37.9664 20.2417 38.1949 19.2261 38.1949C18.1258 38.1949 17.2795 38.0532 16.687 37.7697V36.7286C17.0679 36.8894 17.4826 37.0164 17.9312 37.1095C18.3797 37.2026 18.8241 37.2491 19.2642 37.2491C19.9836 37.2491 20.5252 37.1137 20.8892 36.8429C21.2531 36.5678 21.4351 36.187 21.4351 35.7003C21.4351 35.3787 21.3695 35.1163 21.2383 34.9132C21.1113 34.7059 20.8955 34.5154 20.5908 34.3419C20.2904 34.1684 19.8312 33.9716 19.2134 33.7516C18.3501 33.4427 17.7323 33.0766 17.3599 32.6534C16.9917 32.2303 16.8076 31.678 16.8076 30.9967C16.8076 30.2815 17.0763 29.7124 17.6138 29.2892C18.1512 28.866 18.8621 28.6544 19.7466 28.6544C20.6691 28.6544 21.5176 28.8237 22.292 29.1622L21.9556 30.1017C21.1896 29.7801 20.4448 29.6193 19.7212 29.6193C19.1499 29.6193 18.7035 29.742 18.3818 29.9874C18.0602 30.2329 17.8994 30.5735 17.8994 31.0094C17.8994 31.331 17.9587 31.5955 18.0771 31.8029C18.1956 32.006 18.3945 32.1943 18.6738 32.3678C18.9574 32.5371 19.389 32.7254 19.9688 32.9327C20.9421 33.2797 21.6107 33.6521 21.9746 34.0499C22.3428 34.4477 22.5269 34.964 22.5269 35.5988ZM31.8325 33.339C31.8325 34.8709 31.4157 36.0431 30.582 36.8556C29.7526 37.6639 28.5571 38.068 26.9956 38.068H24.4248V28.7877H27.2686C28.7116 28.7877 29.833 29.1876 30.6328 29.9874C31.4326 30.7872 31.8325 31.9044 31.8325 33.339ZM30.6899 33.3771C30.6899 32.1668 30.3853 31.2548 29.7759 30.6412C29.1707 30.0276 28.2694 29.7208 27.0718 29.7208H25.5039V37.1349H26.8179C28.1043 37.1349 29.0713 36.8196 29.7188 36.1891C30.3662 35.5543 30.6899 34.617 30.6899 33.3771ZM33.9082 38.068V28.7877H34.9873V37.0905H39.0815V38.068H33.9082Z" fill="white"/>
<path d="M8.07422 16.4697C7.8916 16.6357 7.69515 16.7935 7.48486 16.9429C7.28011 17.0868 7.06429 17.214 6.8374 17.3247C6.61051 17.4299 6.37533 17.5129 6.13184 17.5737C5.89388 17.6401 5.65039 17.6733 5.40137 17.6733C4.85352 17.6733 4.33887 17.5765 3.85742 17.3828C3.37598 17.1891 2.95264 16.9152 2.5874 16.561C2.2277 16.2013 1.94271 15.7669 1.73242 15.2578C1.52767 14.7432 1.42529 14.1676 1.42529 13.5312V8.61719H3.68311V13.5312C3.68311 13.8301 3.72738 14.0985 3.81592 14.3364C3.90999 14.5688 4.03451 14.7653 4.18945 14.9258C4.3444 15.0863 4.52425 15.208 4.729 15.291C4.93929 15.374 5.16341 15.4155 5.40137 15.4155C5.63379 15.4155 5.85238 15.363 6.05713 15.2578C6.26742 15.1471 6.45003 15.0033 6.60498 14.8262C6.75993 14.6491 6.88167 14.4499 6.97021 14.2285C7.05876 14.0016 7.10303 13.7692 7.10303 13.5312V8.61719H9.36914V17.5073H8.82129L8.07422 16.4697ZM13.7101 17.5073H11.444V8.61719H11.9919L12.7389 9.48047C13.1042 9.14844 13.5164 8.89388 13.9757 8.7168C14.4406 8.53418 14.9248 8.44287 15.4284 8.44287C15.9707 8.44287 16.4826 8.54801 16.964 8.7583C17.4455 8.96305 17.866 9.24805 18.2257 9.61328C18.5854 9.97298 18.8677 10.3963 19.0724 10.8833C19.2827 11.3647 19.3879 11.8794 19.3879 12.4272V17.5073H17.1217V12.4272C17.1217 12.1948 17.0775 11.9762 16.9889 11.7715C16.9004 11.5612 16.7786 11.3786 16.6237 11.2236C16.4687 11.0687 16.2889 10.9469 16.0841 10.8584C15.8794 10.7699 15.6608 10.7256 15.4284 10.7256C15.1904 10.7256 14.9663 10.7699 14.756 10.8584C14.5457 10.9469 14.3631 11.0687 14.2082 11.2236C14.0532 11.3786 13.9315 11.5612 13.8429 11.7715C13.7544 11.9762 13.7101 12.1948 13.7101 12.4272V17.5073ZM23.9696 17.5073H21.5872V5.604H29.9212V7.98633H23.9696V10.3687H27.5389V12.751H23.9696V17.5073ZM33.7392 15.3325C33.8278 15.3602 33.9163 15.3796 34.0049 15.3906C34.0934 15.3962 34.1819 15.3989 34.2705 15.3989C34.4918 15.3989 34.7049 15.3685 34.9096 15.3076C35.1144 15.2467 35.3053 15.161 35.4824 15.0503C35.665 14.9341 35.8255 14.7957 35.9638 14.6353C36.1077 14.4692 36.2239 14.2866 36.3125 14.0874L37.9726 15.7559C37.7624 16.0547 37.5189 16.3231 37.2422 16.561C36.971 16.799 36.6749 17.001 36.354 17.167C36.0386 17.333 35.7038 17.4575 35.3496 17.5405C35.001 17.6291 34.6413 17.6733 34.2705 17.6733C33.6452 17.6733 33.0558 17.5571 32.5024 17.3247C31.9546 17.0923 31.4731 16.7686 31.0581 16.3535C30.6486 15.9385 30.3249 15.446 30.0869 14.876C29.8489 14.3005 29.73 13.6696 29.73 12.9834C29.73 12.2806 29.8489 11.6387 30.0869 11.0576C30.3249 10.4766 30.6486 9.98128 31.0581 9.57178C31.4731 9.16227 31.9546 8.84408 32.5024 8.61719C33.0558 8.3903 33.6452 8.27686 34.2705 8.27686C34.6413 8.27686 35.0037 8.32113 35.3579 8.40967C35.7121 8.49821 36.0469 8.62549 36.3623 8.7915C36.6832 8.95752 36.9821 9.16227 37.2588 9.40576C37.5355 9.64372 37.779 9.91211 37.9892 10.2109L33.7392 15.3325ZM34.9013 10.6592C34.7962 10.6204 34.6911 10.5955 34.5859 10.5845C34.4863 10.5734 34.3812 10.5679 34.2705 10.5679C33.9606 10.5679 33.6673 10.626 33.3906 10.7422C33.1194 10.8529 32.8815 11.0133 32.6767 11.2236C32.4775 11.4339 32.3198 11.6885 32.2036 11.9873C32.0874 12.2806 32.0293 12.6126 32.0293 12.9834C32.0293 13.0664 32.032 13.1605 32.0376 13.2656C32.0486 13.3708 32.0625 13.4787 32.0791 13.5894C32.1012 13.6945 32.1261 13.7969 32.1538 13.8965C32.1815 13.9961 32.2174 14.0846 32.2617 14.1621L34.9013 10.6592ZM47.9996 17.5073H47.4518L46.5719 16.2871C46.3561 16.4808 46.1264 16.6634 45.8829 16.835C45.645 17.001 45.3932 17.1476 45.1276 17.2749C44.862 17.3966 44.588 17.4935 44.3058 17.5654C44.0291 17.6374 43.7469 17.6733 43.4591 17.6733C42.8338 17.6733 42.2444 17.5571 41.6911 17.3247C41.1432 17.0868 40.6618 16.7603 40.2467 16.3452C39.8372 15.9246 39.5135 15.4294 39.2755 14.8594C39.0376 14.2839 38.9186 13.6585 38.9186 12.9834C38.9186 12.3138 39.0376 11.6912 39.2755 11.1157C39.5135 10.5402 39.8372 10.0422 40.2467 9.62158C40.6618 9.20101 41.1432 8.87174 41.6911 8.63379C42.2444 8.39583 42.8338 8.27686 43.4591 8.27686C43.6583 8.27686 43.8631 8.29346 44.0734 8.32666C44.2892 8.35986 44.4967 8.4152 44.6959 8.49268C44.9007 8.56462 45.0916 8.66146 45.2687 8.7832C45.4458 8.90495 45.5952 9.05436 45.7169 9.23145V5.08105H47.9996V17.5073ZM45.7169 12.9834C45.7169 12.6735 45.6561 12.3747 45.5343 12.0869C45.4181 11.7936 45.2576 11.5363 45.0529 11.3149C44.8481 11.0881 44.6074 10.9082 44.3307 10.7754C44.0595 10.637 43.769 10.5679 43.4591 10.5679C43.1492 10.5679 42.8559 10.6232 42.5792 10.7339C42.3081 10.8446 42.0701 11.005 41.8654 11.2153C41.6662 11.4201 41.5084 11.6719 41.3922 11.9707C41.276 12.2695 41.2179 12.6071 41.2179 12.9834C41.2179 13.3099 41.276 13.6198 41.3922 13.9131C41.5084 14.2064 41.6662 14.4637 41.8654 14.6851C42.0701 14.9064 42.3081 15.0807 42.5792 15.208C42.8559 15.3353 43.1492 15.3989 43.4591 15.3989C43.769 15.3989 44.0595 15.3325 44.3307 15.1997C44.6074 15.0614 44.8481 14.8815 45.0529 14.6602C45.2576 14.4333 45.4181 14.1759 45.5343 13.8882C45.6561 13.5949 45.7169 13.2933 45.7169 12.9834ZM53.6106 15.3325C53.6992 15.3602 53.7877 15.3796 53.8763 15.3906C53.9648 15.3962 54.0534 15.3989 54.1419 15.3989C54.3632 15.3989 54.5763 15.3685 54.7811 15.3076C54.9858 15.2467 55.1767 15.161 55.3538 15.0503C55.5364 14.9341 55.6969 14.7957 55.8353 14.6353C55.9791 14.4692 56.0953 14.2866 56.1839 14.0874L57.844 15.7559C57.6338 16.0547 57.3903 16.3231 57.1136 16.561C56.8424 16.799 56.5464 17.001 56.2254 17.167C55.91 17.333 55.5752 17.4575 55.221 17.5405C54.8724 17.6291 54.5127 17.6733 54.1419 17.6733C53.5166 17.6733 52.9272 17.5571 52.3738 17.3247C51.826 17.0923 51.3445 16.7686 50.9295 16.3535C50.52 15.9385 50.1963 15.446 49.9583 14.876C49.7203 14.3005 49.6014 13.6696 49.6014 12.9834C49.6014 12.2806 49.7203 11.6387 49.9583 11.0576C50.1963 10.4766 50.52 9.98128 50.9295 9.57178C51.3445 9.16227 51.826 8.84408 52.3738 8.61719C52.9272 8.3903 53.5166 8.27686 54.1419 8.27686C54.5127 8.27686 54.8751 8.32113 55.2293 8.40967C55.5835 8.49821 55.9183 8.62549 56.2337 8.7915C56.5547 8.95752 56.8535 9.16227 57.1302 9.40576C57.4069 9.64372 57.6504 9.91211 57.8606 10.2109L53.6106 15.3325ZM54.7728 10.6592C54.6676 10.6204 54.5625 10.5955 54.4573 10.5845C54.3577 10.5734 54.2526 10.5679 54.1419 10.5679C53.832 10.5679 53.5387 10.626 53.262 10.7422C52.9909 10.8529 52.7529 11.0133 52.5481 11.2236C52.3489 11.4339 52.1912 11.6885 52.075 11.9873C51.9588 12.2806 51.9007 12.6126 51.9007 12.9834C51.9007 13.0664 51.9035 13.1605 51.909 13.2656C51.9201 13.3708 51.9339 13.4787 51.9505 13.5894C51.9726 13.6945 51.9975 13.7969 52.0252 13.8965C52.0529 13.9961 52.0888 14.0846 52.1331 14.1621L54.7728 10.6592ZM61.6123 17.5073H59.3462V8.61719H59.894L60.6411 9.67139C61.0063 9.33936 61.4213 9.0848 61.8862 8.90771C62.351 8.7251 62.8325 8.63379 63.3305 8.63379H65.331V10.8916H63.3305C63.0926 10.8916 62.8685 10.9359 62.6582 11.0244C62.4479 11.113 62.2653 11.2347 62.1103 11.3896C61.9554 11.5446 61.8336 11.7272 61.7451 11.9375C61.6565 12.1478 61.6123 12.3719 61.6123 12.6099V17.5073ZM75.1671 17.5073H74.6193L73.7394 16.2871C73.5236 16.4808 73.2939 16.6634 73.0504 16.835C72.8125 17.001 72.5607 17.1476 72.295 17.2749C72.0294 17.3966 71.7555 17.4935 71.4733 17.5654C71.1966 17.6374 70.9143 17.6733 70.6266 17.6733C70.0013 17.6733 69.4119 17.5682 68.8585 17.3579C68.3107 17.1476 67.8292 16.8433 67.4142 16.4448C67.0047 16.0409 66.6809 15.5483 66.443 14.9673C66.205 14.3862 66.0861 13.7249 66.0861 12.9834C66.0861 12.2917 66.205 11.658 66.443 11.0825C66.6809 10.5015 67.0047 10.0034 67.4142 9.58838C67.8292 9.17334 68.3107 8.85238 68.8585 8.62549C69.4119 8.39307 70.0013 8.27686 70.6266 8.27686C70.9143 8.27686 71.1993 8.31283 71.4816 8.38477C71.7638 8.45671 72.0377 8.55632 72.3033 8.68359C72.569 8.81087 72.8208 8.96029 73.0587 9.13184C73.3022 9.30339 73.5291 9.48877 73.7394 9.68799L74.6193 8.63379H75.1671V17.5073ZM72.8844 12.9834C72.8844 12.6735 72.8235 12.3747 72.7018 12.0869C72.5856 11.7936 72.4251 11.5363 72.2203 11.3149C72.0156 11.0881 71.7749 10.9082 71.4982 10.7754C71.227 10.637 70.9365 10.5679 70.6266 10.5679C70.3167 10.5679 70.0234 10.6204 69.7467 10.7256C69.4755 10.8307 69.2376 10.9857 69.0328 11.1904C68.8336 11.3952 68.6759 11.6497 68.5597 11.9541C68.4435 12.2529 68.3854 12.596 68.3854 12.9834C68.3854 13.3708 68.4435 13.7166 68.5597 14.021C68.6759 14.3198 68.8336 14.5716 69.0328 14.7764C69.2376 14.9811 69.4755 15.1361 69.7467 15.2412C70.0234 15.3464 70.3167 15.3989 70.6266 15.3989C70.9365 15.3989 71.227 15.3325 71.4982 15.1997C71.7749 15.0614 72.0156 14.8815 72.2203 14.6602C72.4251 14.4333 72.5856 14.1759 72.7018 13.8882C72.8235 13.5949 72.8844 13.2933 72.8844 12.9834ZM79.5247 17.5073H77.242V5.08105H79.5247V17.5073ZM84.2226 7.98633V12.751H86.6049C86.9314 12.751 87.2385 12.6901 87.5263 12.5684C87.8141 12.4411 88.0659 12.2695 88.2817 12.0537C88.4975 11.8379 88.6663 11.5861 88.788 11.2983C88.9153 11.005 88.9789 10.6951 88.9789 10.3687C88.9789 10.0422 88.9153 9.73503 88.788 9.44727C88.6663 9.15397 88.4975 8.89941 88.2817 8.68359C88.0659 8.46777 87.8141 8.29899 87.5263 8.17725C87.2385 8.04997 86.9314 7.98633 86.6049 7.98633H84.2226ZM84.2226 17.5073H81.8403V5.604H86.6049C87.0421 5.604 87.4627 5.66211 87.8666 5.77832C88.2706 5.889 88.6469 6.04948 88.9955 6.25977C89.3497 6.46452 89.6707 6.71354 89.9584 7.00684C90.2517 7.2946 90.5008 7.61556 90.7055 7.96973C90.9158 8.32389 91.0763 8.70296 91.187 9.10693C91.3032 9.5109 91.3613 9.93148 91.3613 10.3687C91.3613 10.7782 91.3087 11.1766 91.2036 11.564C91.1039 11.9513 90.9573 12.3193 90.7636 12.668C90.5755 13.0166 90.343 13.3376 90.0663 13.6309C89.7897 13.9242 89.4798 14.1787 89.1367 14.3945L90.4565 17.5073H87.9247L86.8871 15.1084L84.2226 15.125V17.5073ZM96.4659 15.3325C96.5545 15.3602 96.643 15.3796 96.7315 15.3906C96.8201 15.3962 96.9086 15.3989 96.9972 15.3989C97.2185 15.3989 97.4316 15.3685 97.6363 15.3076C97.8411 15.2467 98.032 15.161 98.2091 15.0503C98.3917 14.9341 98.5522 14.7957 98.6905 14.6353C98.8344 14.4692 98.9506 14.2866 99.0392 14.0874L100.699 15.7559C100.489 16.0547 100.246 16.3231 99.9688 16.561C99.6977 16.799 99.4016 17.001 99.0807 17.167C98.7652 17.333 98.4304 17.4575 98.0763 17.5405C97.7276 17.6291 97.3679 17.6733 96.9972 17.6733C96.3718 17.6733 95.7825 17.5571 95.2291 17.3247C94.6813 17.0923 94.1998 16.7686 93.7848 16.3535C93.3753 15.9385 93.0515 15.446 92.8136 14.876C92.5756 14.3005 92.4566 13.6696 92.4566 12.9834C92.4566 12.2806 92.5756 11.6387 92.8136 11.0576C93.0515 10.4766 93.3753 9.98128 93.7848 9.57178C94.1998 9.16227 94.6813 8.84408 95.2291 8.61719C95.7825 8.3903 96.3718 8.27686 96.9972 8.27686C97.3679 8.27686 97.7304 8.32113 98.0846 8.40967C98.4387 8.49821 98.7735 8.62549 99.089 8.7915C99.4099 8.95752 99.7088 9.16227 99.9855 9.40576C100.262 9.64372 100.506 9.91211 100.716 10.2109L96.4659 15.3325ZM97.628 10.6592C97.5229 10.6204 97.4177 10.5955 97.3126 10.5845C97.213 10.5734 97.1078 10.5679 96.9972 10.5679C96.6873 10.5679 96.394 10.626 96.1173 10.7422C95.8461 10.8529 95.6082 11.0133 95.4034 11.2236C95.2042 11.4339 95.0465 11.6885 94.9303 11.9873C94.8141 12.2806 94.756 12.6126 94.756 12.9834C94.756 13.0664 94.7587 13.1605 94.7643 13.2656C94.7753 13.3708 94.7892 13.4787 94.8058 13.5894C94.8279 13.6945 94.8528 13.7969 94.8805 13.8965C94.9081 13.9961 94.9441 14.0846 94.9884 14.1621L97.628 10.6592ZM107.082 17.5073H101.903V15.2495H107.082C107.237 15.2495 107.37 15.1942 107.481 15.0835C107.591 14.9728 107.647 14.84 107.647 14.6851C107.647 14.5246 107.591 14.4194 107.481 14.3696C107.37 14.3198 107.237 14.2949 107.082 14.2949H104.725C104.332 14.2949 103.964 14.2202 103.621 14.0708C103.278 13.9214 102.979 13.7194 102.724 13.4648C102.47 13.2048 102.268 12.9032 102.118 12.5601C101.975 12.217 101.903 11.849 101.903 11.4561C101.903 11.0632 101.975 10.6951 102.118 10.3521C102.268 10.009 102.47 9.71012 102.724 9.45557C102.979 9.20101 103.278 9.00179 103.621 8.85791C103.964 8.7085 104.332 8.63379 104.725 8.63379H109.315V10.8916H104.725C104.57 10.8916 104.437 10.9469 104.326 11.0576C104.216 11.1683 104.16 11.3011 104.16 11.4561C104.16 11.6165 104.216 11.7549 104.326 11.8711C104.437 11.9818 104.57 12.0371 104.725 12.0371H107.082C107.47 12.0371 107.835 12.1035 108.178 12.2363C108.521 12.3636 108.82 12.5435 109.074 12.7759C109.329 13.0083 109.531 13.2878 109.68 13.6143C109.83 13.9408 109.905 14.2977 109.905 14.6851C109.905 15.078 109.83 15.446 109.68 15.7891C109.531 16.1266 109.329 16.4255 109.074 16.6855C108.82 16.9401 108.521 17.1421 108.178 17.2915C107.835 17.4354 107.47 17.5073 107.082 17.5073ZM114.993 15.3325C115.081 15.3602 115.17 15.3796 115.258 15.3906C115.347 15.3962 115.435 15.3989 115.524 15.3989C115.745 15.3989 115.958 15.3685 116.163 15.3076C116.368 15.2467 116.559 15.161 116.736 15.0503C116.918 14.9341 117.079 14.7957 117.217 14.6353C117.361 14.4692 117.477 14.2866 117.566 14.0874L119.226 15.7559C119.016 16.0547 118.772 16.3231 118.496 16.561C118.224 16.799 117.928 17.001 117.607 17.167C117.292 17.333 116.957 17.4575 116.603 17.5405C116.254 17.6291 115.895 17.6733 115.524 17.6733C114.899 17.6733 114.309 17.5571 113.756 17.3247C113.208 17.0923 112.726 16.7686 112.311 16.3535C111.902 15.9385 111.578 15.446 111.34 14.876C111.102 14.3005 110.983 13.6696 110.983 12.9834C110.983 12.2806 111.102 11.6387 111.34 11.0576C111.578 10.4766 111.902 9.98128 112.311 9.57178C112.726 9.16227 113.208 8.84408 113.756 8.61719C114.309 8.3903 114.899 8.27686 115.524 8.27686C115.895 8.27686 116.257 8.32113 116.611 8.40967C116.965 8.49821 117.3 8.62549 117.616 8.7915C117.937 8.95752 118.235 9.16227 118.512 9.40576C118.789 9.64372 119.032 9.91211 119.243 10.2109L114.993 15.3325ZM116.155 10.6592C116.05 10.6204 115.944 10.5955 115.839 10.5845C115.74 10.5734 115.635 10.5679 115.524 10.5679C115.214 10.5679 114.921 10.626 114.644 10.7422C114.373 10.8529 114.135 11.0133 113.93 11.2236C113.731 11.4339 113.573 11.6885 113.457 11.9873C113.341 12.2806 113.283 12.6126 113.283 12.9834C113.283 13.0664 113.285 13.1605 113.291 13.2656C113.302 13.3708 113.316 13.4787 113.332 13.5894C113.355 13.6945 113.379 13.7969 113.407 13.8965C113.435 13.9961 113.471 14.0846 113.515 14.1621L116.155 10.6592ZM122.994 17.5073H120.728V8.61719H121.276L122.023 9.67139C122.388 9.33936 122.803 9.0848 123.268 8.90771C123.733 8.7251 124.214 8.63379 124.712 8.63379H126.713V10.8916H124.712C124.475 10.8916 124.25 10.9359 124.04 11.0244C123.83 11.113 123.647 11.2347 123.492 11.3896C123.337 11.5446 123.216 11.7272 123.127 11.9375C123.038 12.1478 122.994 12.3719 122.994 12.6099V17.5073ZM130.631 17.5073L127.244 8.61719H129.825L131.768 14.1621L133.702 8.61719H136.292L132.905 17.5073H130.631ZM140.766 15.3325C140.854 15.3602 140.943 15.3796 141.031 15.3906C141.12 15.3962 141.208 15.3989 141.297 15.3989C141.518 15.3989 141.731 15.3685 141.936 15.3076C142.141 15.2467 142.332 15.161 142.509 15.0503C142.691 14.9341 142.852 14.7957 142.99 14.6353C143.134 14.4692 143.25 14.2866 143.339 14.0874L144.999 15.7559C144.789 16.0547 144.545 16.3231 144.268 16.561C143.997 16.799 143.701 17.001 143.38 17.167C143.065 17.333 142.73 17.4575 142.376 17.5405C142.027 17.6291 141.668 17.6733 141.297 17.6733C140.671 17.6733 140.082 17.5571 139.529 17.3247C138.981 17.0923 138.499 16.7686 138.084 16.3535C137.675 15.9385 137.351 15.446 137.113 14.876C136.875 14.3005 136.756 13.6696 136.756 12.9834C136.756 12.2806 136.875 11.6387 137.113 11.0576C137.351 10.4766 137.675 9.98128 138.084 9.57178C138.499 9.16227 138.981 8.84408 139.529 8.61719C140.082 8.3903 140.671 8.27686 141.297 8.27686C141.668 8.27686 142.03 8.32113 142.384 8.40967C142.738 8.49821 143.073 8.62549 143.389 8.7915C143.71 8.95752 144.008 9.16227 144.285 9.40576C144.562 9.64372 144.805 9.91211 145.016 10.2109L140.766 15.3325ZM141.928 10.6592C141.822 10.6204 141.717 10.5955 141.612 10.5845C141.513 10.5734 141.407 10.5679 141.297 10.5679C140.987 10.5679 140.694 10.626 140.417 10.7422C140.146 10.8529 139.908 11.0133 139.703 11.2236C139.504 11.4339 139.346 11.6885 139.23 11.9873C139.114 12.2806 139.056 12.6126 139.056 12.9834C139.056 13.0664 139.058 13.1605 139.064 13.2656C139.075 13.3708 139.089 13.4787 139.105 13.5894C139.128 13.6945 139.152 13.7969 139.18 13.8965C139.208 13.9961 139.244 14.0846 139.288 14.1621L141.928 10.6592Z" fill="white"/>
</svg>
