<svg viewBox="0 0 300 58.9945" width="5000px" height="983.2416534423829px" xmlns="http://www.w3.org/2000/svg" xmlns:xlink="http://www.w3.org/1999/xlink" preserveAspectRatio="none"><defs></defs><style>.companyName {fill:#F5F4F4;fill-opacity:1;}.icon1 {fill:#FF4949;fill-opacity:1;}.icon2 {fill:#4F53FF;fill-opacity:1;}.icon3 {fill:#EB63DD;fill-opacity:1;}.shapeStroke-str {stroke:#313131;stroke-opacity:1;}.text {fill:#F9F9F9;fill-opacity:1;}</style><g opacity="1" transform="rotate(0 0 9.0779)">
<svg width="41.2082" height="40.8386" x="0" y="9.0779" version="1.1" preserveAspectRatio="none" viewBox="4.800000190734863 5 44.599998474121094 44.20000076293945">
  <g transform="matrix(1 0 0 1 0 0)" class="icon1"><switch><g><g><g><path d="M32.6,20.2c-0.4,0-0.7-0.3-0.7-0.7c0,0,0-0.1,0-0.1c0-0.1,0-0.3,0-0.4c0-3-2.2-5.4-4.9-5.4S22.2,16,22.2,19      c0,0.1,0,0.3,0,0.4c0,0,0,0.1,0,0.1c0,0.4-0.3,0.7-0.7,0.7c-0.7,0-0.7-0.7-0.7-1.2c0-3.8,2.8-6.9,6.3-6.9s6.3,3.1,6.3,6.8      C33.3,19.5,33.3,20.2,32.6,20.2z"></path><path d="M27,13.3c-2.3,0-4.2-1.9-4.2-4.2S24.7,5,27,5s4.2,1.9,4.2,4.2S29.3,13.3,27,13.3z M27,6.4c-1.5,0-2.8,1.2-2.8,2.8      c0,1.5,1.2,2.8,2.8,2.8c1.5,0,2.8-1.2,2.8-2.8C29.7,7.7,28.5,6.4,27,6.4z"></path><path d="M20.8,19.5c0,0.4,0.3,0.7,0.7,0.7h2.2c0.4,0,0.7-0.3,0.7-0.7s-0.3-0.7-0.7-0.7h-2.2C21.1,18.8,20.8,19.1,20.8,19.5      L20.8,19.5z M20.8,19.5"></path><path d="M29.6,19.5c0,0.4,0.3,0.7,0.7,0.7h2.2c0.4,0,0.7-0.3,0.7-0.7s-0.3-0.7-0.7-0.7h-2.2C29.9,18.8,29.6,19.1,29.6,19.5      L29.6,19.5z M29.6,19.5"></path></g><g><path d="M48.6,49.2c-0.4,0-0.7-0.3-0.7-0.7c0,0,0-0.1,0-0.1c0-0.1,0-0.3,0-0.4c0-3-2.2-5.4-4.9-5.4S38.2,45,38.2,48      c0,0.1,0,0.3,0,0.4c0,0,0,0.1,0,0.1c0,0.4-0.3,0.7-0.7,0.7c-0.7,0-0.7-0.7-0.7-1.2c0-3.8,2.8-6.9,6.3-6.9s6.3,3.1,6.3,6.8      C49.3,48.5,49.3,49.2,48.6,49.2z"></path><path d="M43,42.3c-2.3,0-4.2-1.9-4.2-4.2S40.7,34,43,34s4.2,1.9,4.2,4.2S45.3,42.3,43,42.3z M43,35.4c-1.5,0-2.8,1.2-2.8,2.8      c0,1.5,1.2,2.8,2.8,2.8c1.5,0,2.8-1.2,2.8-2.8C45.7,36.7,44.5,35.4,43,35.4z"></path><path d="M36.8,48.5c0,0.4,0.3,0.7,0.7,0.7h2.2c0.4,0,0.7-0.3,0.7-0.7s-0.3-0.7-0.7-0.7h-2.2C37.1,47.8,36.8,48.1,36.8,48.5      L36.8,48.5z M36.8,48.5"></path><path d="M45.6,48.5c0,0.4,0.3,0.7,0.7,0.7h2.2c0.4,0,0.7-0.3,0.7-0.7s-0.3-0.7-0.7-0.7h-2.2C45.9,47.8,45.6,48.1,45.6,48.5      L45.6,48.5z M45.6,48.5"></path></g><g><path d="M16.6,49.2c-0.4,0-0.7-0.3-0.7-0.7c0,0,0-0.1,0-0.1c0-0.1,0-0.3,0-0.4c0-3-2.2-5.4-4.9-5.4S6.2,45,6.2,48      c0,0.1,0,0.3,0,0.4c0,0,0,0.1,0,0.1c0,0.4-0.3,0.7-0.7,0.7c-0.7,0-0.7-0.7-0.7-1.2c0-3.8,2.8-6.9,6.3-6.9s6.3,3.1,6.3,6.8      C17.3,48.5,17.3,49.2,16.6,49.2z"></path><path d="M11,42.3c-2.3,0-4.2-1.9-4.2-4.2S8.7,34,11,34s4.2,1.9,4.2,4.2S13.3,42.3,11,42.3z M11,35.4c-1.5,0-2.8,1.2-2.8,2.8      c0,1.5,1.2,2.8,2.8,2.8c1.5,0,2.8-1.2,2.8-2.8C13.7,36.7,12.5,35.4,11,35.4z"></path><path d="M4.8,48.5c0,0.4,0.3,0.7,0.7,0.7h2.2c0.4,0,0.7-0.3,0.7-0.7S8,47.8,7.6,47.8H5.5C5.1,47.8,4.8,48.1,4.8,48.5L4.8,48.5z       M4.8,48.5"></path><path d="M13.6,48.5c0,0.4,0.3,0.7,0.7,0.7h2.2c0.4,0,0.7-0.3,0.7-0.7s-0.3-0.7-0.7-0.7h-2.2C13.9,47.8,13.6,48.1,13.6,48.5      L13.6,48.5z M13.6,48.5"></path></g><path d="M14.8,32.6"></path><path d="M27,40.6c4.4,0,8-3.6,8-8c0-4.4-3.6-8-8-8c-4.4,0-8,3.6-8,8C18.9,37,22.5,40.6,27,40.6L27,40.6z M27,25.8     c3.7,0,6.8,3,6.8,6.8s-3,6.8-6.8,6.8c-3.7,0-6.8-3-6.8-6.8S23.2,25.8,27,25.8L27,25.8z M27,25.8"></path><path d="M25.5,34.7c0-0.4-0.3-0.6-0.6-0.6c-0.4,0-0.6,0.3-0.6,0.6c0,1.3,0.9,2.3,2.1,2.6v0.7c0,0.4,0.3,0.6,0.6,0.6     c0.4,0,0.6-0.3,0.6-0.6v-0.7c1.2-0.3,2.1-1.4,2.1-2.6c0-1.3-0.9-2.3-2.1-2.6v-2.8c0.5,0.2,0.8,0.7,0.8,1.3c0,0.4,0.3,0.6,0.6,0.6     c0.4,0,0.6-0.3,0.6-0.6c0-1.3-0.9-2.3-2.1-2.6v-0.7c0-0.4-0.3-0.6-0.6-0.6c-0.4,0-0.6,0.3-0.6,0.6v0.7c-1.2,0.3-2.1,1.4-2.1,2.6     c0,1.3,0.9,2.3,2.1,2.6v2.8C25.9,35.7,25.5,35.2,25.5,34.7L25.5,34.7z M28.4,34.7c0,0.6-0.3,1-0.8,1.3v-2.5     C28.1,33.6,28.4,34.1,28.4,34.7L28.4,34.7z M25.5,30.5c0-0.6,0.3-1,0.8-1.3v2.5C25.9,31.6,25.5,31.1,25.5,30.5L25.5,30.5z      M25.5,30.5"></path><path d="M27.7,21.7c0-0.4-0.3-0.7-0.7-0.7c-0.4,0-0.7,0.3-0.7,0.7l0,2.8c0,0.4,0.3,0.7,0.7,0.7c0.4,0,0.7-0.3,0.7-0.7l0,0      M27.7,24.6"></path><path d="M35.2,39.1l-2-2c-0.3-0.3-0.7-0.3-1,0c-0.3,0.3-0.3,0.7,0,1l2,2c0.3,0.3,0.7,0.3,1,0C35.4,39.8,35.4,39.4,35.2,39.1     L35.2,39.1z M35.2,39.1"></path><path d="M18.7,39.1c-0.3,0.3-0.3,0.7,0,1c0.3,0.3,0.7,0.3,1,0l2-2c0.3-0.3,0.3-0.7,0-1c-0.3-0.3-0.7-0.3-1,0L18.7,39.1L18.7,39.1     z M18.7,39.1"></path><path d="M16.7,32.9c-0.3,0-0.6-0.2-0.6-0.5c-0.2-1.2-0.2-2.4,0.1-3.5c0.9-3.2,3.5-4.9,4.6-5.4c0.3-0.2,0.7,0,0.9,0.3     c0.2,0.3,0,0.7-0.3,0.9c-0.7,0.4-3.2,1.8-4,4.6c-0.3,0.9-0.3,1.9-0.1,2.9c0.1,0.4-0.2,0.7-0.5,0.8C16.8,32.9,16.8,32.9,16.7,32.9     z"></path><path d="M37.1,32.9c0,0-0.1,0-0.1,0c-0.4-0.1-0.6-0.4-0.5-0.8c0.2-1,0.1-2-0.1-2.9c-0.8-2.8-3.2-4.2-4-4.6     c-0.3-0.2-0.5-0.5-0.3-0.9c0.2-0.3,0.5-0.5,0.9-0.3c1.1,0.5,3.8,2.2,4.6,5.4c0.3,1.1,0.4,2.3,0.1,3.5     C37.7,32.7,37.4,32.9,37.1,32.9z"></path><path d="M26.7,44.2c-0.5,0-1.1,0-1.7-0.2c-1.6-0.3-2.7-1-3.2-1.4c-0.3-0.2-0.3-0.6-0.1-0.9c0.2-0.3,0.6-0.3,0.9-0.1     c0.3,0.3,1.2,0.9,2.7,1.1c3.2,0.6,5.4-0.9,5.9-1.2c0.3-0.2,0.7-0.1,0.9,0.1c0.2,0.3,0.1,0.7-0.1,0.9     C31.5,42.9,29.5,44.2,26.7,44.2z"></path></g></g></switch></g>
</svg>
</g><g opacity="1" transform="rotate(0 61.78489999999999 39.337699999999984)">
<svg width="51.1199" height="10.5788" x="61.78489999999999" y="39.337699999999984" version="1.1" preserveAspectRatio="none" viewBox="1.52 -28.4 139.2 28.8">
  <g transform="matrix(1 0 0 1 0 0)" class="text"><path d="M23.36-10.56Q23.36-10.04 23.28-9.08L23.28-9.08L6.52-9.08Q6.96-6.72 8.82-5.34Q10.68-3.96 13.44-3.96L13.44-3.96Q16.96-3.96 19.24-6.28L19.24-6.28L21.92-3.20Q20.48-1.48 18.28-0.60Q16.08 0.28 13.32 0.28L13.32 0.28Q9.80 0.28 7.12-1.12Q4.44-2.52 2.98-5.02Q1.52-7.52 1.52-10.68L1.52-10.68Q1.52-13.80 2.94-16.30Q4.36-18.80 6.88-20.20Q9.40-21.60 12.56-21.60L12.56-21.60Q15.68-21.60 18.14-20.22Q20.60-18.84 21.98-16.34Q23.36-13.84 23.36-10.56L23.36-10.56ZM12.56-17.60Q10.16-17.60 8.50-16.18Q6.84-14.76 6.48-12.40L6.48-12.40L18.60-12.40Q18.28-14.72 16.64-16.16Q15-17.60 12.56-17.60L12.56-17.60Z M53.76 0L48.16 0L42.44-8.20Q42.08-8.16 41.36-8.16L41.36-8.16L35.04-8.16L35.04 0L29.84 0L29.84-28L41.36-28Q45-28 47.70-26.80Q50.40-25.60 51.84-23.36Q53.28-21.12 53.28-18.04L53.28-18.04Q53.28-14.88 51.74-12.60Q50.20-10.32 47.32-9.20L47.32-9.20L53.76 0ZM48.04-18.04Q48.04-20.72 46.28-22.16Q44.52-23.60 41.12-23.60L41.12-23.60L35.04-23.60L35.04-12.44L41.12-12.44Q44.52-12.44 46.28-13.90Q48.04-15.36 48.04-18.04L48.04-18.04Z M68.96 0.40Q65.72 0.40 62.70-0.52Q59.68-1.44 57.92-2.96L57.92-2.96L59.72-7Q61.44-5.64 63.94-4.78Q66.44-3.92 68.96-3.92L68.96-3.92Q72.08-3.92 73.62-4.92Q75.16-5.92 75.16-7.56L75.16-7.56Q75.16-8.76 74.30-9.54Q73.44-10.32 72.12-10.76Q70.80-11.20 68.52-11.76L68.52-11.76Q65.32-12.52 63.34-13.28Q61.36-14.04 59.94-15.66Q58.52-17.28 58.52-20.04L58.52-20.04Q58.52-22.36 59.78-24.26Q61.04-26.16 63.58-27.28Q66.12-28.40 69.80-28.40L69.80-28.40Q72.36-28.40 74.84-27.76Q77.32-27.12 79.12-25.92L79.12-25.92L77.48-21.88Q75.64-22.96 73.64-23.52Q71.64-24.08 69.76-24.08L69.76-24.08Q66.68-24.08 65.18-23.04Q63.68-22 63.68-20.28L63.68-20.28Q63.68-19.08 64.54-18.32Q65.40-17.56 66.72-17.12Q68.04-16.68 70.32-16.12L70.32-16.12Q73.44-15.40 75.44-14.62Q77.44-13.84 78.86-12.24Q80.28-10.64 80.28-7.92L80.28-7.92Q80.28-5.60 79.02-3.72Q77.76-1.84 75.20-0.72Q72.64 0.40 68.96 0.40L68.96 0.40Z M86.64 0L86.64-28L98.88-28Q103.36-28 106.84-26.26Q110.32-24.52 112.24-21.34Q114.16-18.16 114.16-14L114.16-14Q114.16-9.84 112.24-6.66Q110.32-3.48 106.84-1.74Q103.36 0 98.88 0L98.88 0L86.64 0ZM91.84-4.40L98.64-4.40Q101.72-4.40 104.06-5.58Q106.40-6.76 107.66-8.94Q108.92-11.12 108.92-14L108.92-14Q108.92-16.88 107.66-19.06Q106.40-21.24 104.06-22.42Q101.72-23.60 98.64-23.60L98.64-23.60L91.84-23.60L91.84-4.40Z M120.88 0L120.88-28L126.08-28L126.08-4.40L140.72-4.40L140.72 0L120.88 0Z"></path></g>
</svg>
</g><g opacity="1" transform="rotate(0 61.78489999999999 9.0779)">
<svg width="238.2151" height="22.9975" x="61.78489999999999" y="9.0779" version="1.1" preserveAspectRatio="none" viewBox="0.52 -31.32 330.24 31.880000000000003">
  <g transform="matrix(1 0 0 1 0 0)" class="companyName"><path d="M20.88-21.12L20.88-4.36Q20.88-2.52 21.46-1.68Q22.04-0.84 23.44-0.84L23.44-0.84L23.44 0Q22.20-0.12 20.96-0.12L20.96-0.12Q17.48-0.12 15.12 0.44L15.12 0.44L15.12-3.16Q13.28 0.56 8.68 0.56L8.68 0.56Q5.68 0.56 4.32-1L4.32-1Q3.68-1.76 3.38-2.98Q3.08-4.20 3.08-6.20L3.08-6.20L3.08-16.32Q3.08-18.16 2.50-19Q1.92-19.84 0.52-19.84L0.52-19.84L0.52-20.68Q1.76-20.56 3-20.56L3-20.56Q6.48-20.56 8.84-21.12L8.84-21.12L8.84-4.56Q8.84-2.88 9.34-2.04Q9.84-1.20 11.24-1.20L11.24-1.20Q12.84-1.20 13.98-2.54Q15.12-3.88 15.12-5.84L15.12-5.84L15.12-16.32Q15.12-18.16 14.54-19Q13.96-19.84 12.56-19.84L12.56-19.84L12.56-20.68Q13.84-20.56 15.04-20.56L15.04-20.56Q18.52-20.56 20.88-21.12L20.88-21.12Z M40.08-21.24Q43.12-21.24 44.48-19.68L44.48-19.68Q45.16-18.92 45.44-17.72Q45.72-16.52 45.72-14.48L45.72-14.48L45.72-3.72Q45.72-2.08 46.30-1.46Q46.88-0.84 48.28-0.84L48.28-0.84L48.28 0Q44.28-0.16 43-0.16L43-0.16Q41.80-0.16 37.80 0L37.80 0L37.80-0.84Q39-0.84 39.48-1.46Q39.96-2.08 39.96-3.72L39.96-3.72L39.96-16.16Q39.96-17.80 39.42-18.64Q38.88-19.48 37.48-19.48L37.48-19.48Q35.84-19.48 34.68-18.14Q33.52-16.80 33.52-14.84L33.52-14.84L33.52-3.72Q33.52-2.08 34-1.46Q34.48-0.84 35.68-0.84L35.68-0.84L35.68 0Q32-0.16 30.72-0.16L30.72-0.16Q29.52-0.16 25.20 0L25.20 0L25.20-0.84Q26.64-0.84 27.20-1.46Q27.76-2.08 27.76-3.72L27.76-3.72L27.76-16.32Q27.76-18.16 27.20-19Q26.64-19.84 25.20-19.84L25.20-19.84L25.20-20.68Q26.48-20.56 27.68-20.56L27.68-20.56Q31.24-20.56 33.52-21.12L33.52-21.12L33.52-17.52Q35.32-21.24 40.08-21.24L40.08-21.24Z M71.56-28.32Q71.28-24.92 71.28-22.24L71.28-22.24Q71.28-20.36 71.40-19.20L71.40-19.20L70.48-19.20Q69.68-23.72 68.08-25.56Q66.48-27.40 63.60-27.40L63.60-27.40L62.28-27.40Q61.04-27.40 60.48-27.20Q59.92-27 59.72-26.42Q59.52-25.84 59.52-24.56L59.52-24.56L59.52-14.48L60.92-14.48Q63.04-14.48 64.14-16.04Q65.24-17.60 65.68-19.76L65.68-19.76L66.60-19.76Q66.48-18.08 66.48-16L66.48-16L66.48-14.08Q66.48-12.04 66.72-8.40L66.72-8.40L65.80-8.40Q64.96-13.68 60.92-13.68L60.92-13.68L59.52-13.68L59.52-4.48Q59.52-2.88 59.86-2.14Q60.20-1.40 61.06-1.16Q61.92-0.92 63.80-0.88L63.80-0.88L63.80 0Q58.88-0.12 56.48-0.12L56.48-0.12Q54.48-0.12 51.44-0.04L51.44-0.04L50.16 0L50.16-0.80Q51.48-0.88 52.10-1.12Q52.72-1.36 52.94-2.04Q53.16-2.72 53.16-4.24L53.16-4.24L53.16-24.08Q53.16-25.60 52.94-26.28Q52.72-26.96 52.10-27.20Q51.48-27.44 50.16-27.52L50.16-27.52L50.16-28.32Q54.48-28.20 63.20-28.20L63.20-28.20Q69.08-28.20 71.56-28.32L71.56-28.32Z M84.20-2.72Q87.48-2.72 89.48-5.92L89.48-5.92L90.20-5.68Q89.40-3.08 87.34-1.26Q85.28 0.56 82.20 0.56L82.20 0.56Q77.96 0.56 75.46-2.14Q72.96-4.84 72.96-10.12L72.96-10.12Q72.96-15.52 75.64-18.38Q78.32-21.24 82.76-21.24L82.76-21.24Q90.28-21.24 90.28-12.36L90.28-12.36L79.04-12.36Q79-11.76 79-10.48L79-10.48Q79-7.84 79.74-6.08Q80.48-4.32 81.66-3.52Q82.84-2.72 84.20-2.72L84.20-2.72ZM82.52-20.40Q81.08-20.40 80.14-18.62Q79.20-16.84 78.96-13.12L78.96-13.12L85.24-13.12Q85.32-16.28 84.62-18.34Q83.92-20.40 82.52-20.40L82.52-20.40Z M112.28-4.40Q112.28-2.56 112.84-1.72Q113.40-0.88 114.84-0.88L114.84-0.88L114.84-0.04Q113.60-0.16 112.36-0.16L112.36-0.16Q108.80-0.16 106.52 0.40L106.52 0.40L106.52-3.04Q105.16 0.56 101.32 0.56L101.32 0.56Q97.56 0.56 95.34-2.18Q93.12-4.92 93.16-10.44L93.16-10.44Q93.16-13.96 94.30-16.38Q95.44-18.80 97.46-20.02Q99.48-21.24 102.08-21.24L102.08-21.24Q105-21.24 106.52-19.72L106.52-19.72L106.52-26.52Q106.52-28.36 105.94-29.20Q105.36-30.04 103.96-30.04L103.96-30.04L103.96-30.88Q105.24-30.76 106.44-30.76L106.44-30.76Q109.92-30.76 112.28-31.32L112.28-31.32L112.28-4.40ZM102.96-1.16Q104.28-1.16 105.30-2.12Q106.32-3.08 106.52-4.72L106.52-4.72L106.52-18.72Q105.52-20.08 103.60-20.08L103.60-20.08Q101.48-20.08 100.32-17.64Q99.16-15.20 99.20-10.36L99.20-10.36Q99.16-5.48 100.14-3.32Q101.12-1.16 102.96-1.16L102.96-1.16Z M128.28-2.72Q131.56-2.72 133.56-5.92L133.56-5.92L134.28-5.68Q133.48-3.08 131.42-1.26Q129.36 0.56 126.28 0.56L126.28 0.56Q122.04 0.56 119.54-2.14Q117.04-4.84 117.04-10.12L117.04-10.12Q117.04-15.52 119.72-18.38Q122.40-21.24 126.84-21.24L126.84-21.24Q134.36-21.24 134.36-12.36L134.36-12.36L123.12-12.36Q123.08-11.76 123.08-10.48L123.08-10.48Q123.08-7.84 123.82-6.08Q124.56-4.32 125.74-3.52Q126.92-2.72 128.28-2.72L128.28-2.72ZM126.60-20.40Q125.16-20.40 124.22-18.62Q123.28-16.84 123.04-13.12L123.04-13.12L129.32-13.12Q129.40-16.28 128.70-18.34Q128-20.40 126.60-20.40L126.60-20.40Z M150.20-21.24Q152-21.24 152.92-20.16Q153.84-19.08 153.84-17.56L153.84-17.56Q153.84-16.08 152.98-15.14Q152.12-14.20 150.72-14.20L150.72-14.20Q149.36-14.20 148.56-14.90Q147.76-15.60 147.76-16.76L147.76-16.76Q147.76-18.68 149.52-19.88L149.52-19.88Q149.36-19.92 149.04-19.92L149.04-19.92Q148.64-19.92 148.40-19.84L148.40-19.84Q146.88-19.60 145.82-18Q144.76-16.40 144.76-14.72L144.76-14.72L144.76-4.12Q144.76-2.28 145.66-1.56Q146.56-0.84 148.52-0.84L148.52-0.84L148.52 0Q147.96 0 147.60-0.04L147.60-0.04Q143.52-0.16 142.16-0.16L142.16-0.16Q141.08-0.16 137.24-0.04L137.24-0.04Q136.92 0 136.44 0L136.44 0L136.44-0.84Q137.88-0.84 138.44-1.46Q139-2.08 139-3.72L139-3.72L139-16.32Q139-18.16 138.44-19Q137.88-19.84 136.44-19.84L136.44-19.84L136.44-20.68Q137.72-20.56 138.92-20.56L138.92-20.56Q142.48-20.56 144.76-21.12L144.76-21.12L144.76-17.40Q145.52-19.12 146.96-20.18Q148.40-21.24 150.20-21.24L150.20-21.24Z M160.40 0.28Q157.84 0.28 156.58-1.04Q155.32-2.36 155.32-4.52L155.32-4.52Q155.32-6.32 156.26-7.50Q157.20-8.68 158.54-9.32Q159.88-9.96 161.96-10.68L161.96-10.68Q164.16-11.44 165.18-12.06Q166.20-12.68 166.20-13.76L166.20-13.76L166.20-16.88Q166.20-18.56 165.42-19.50Q164.64-20.44 163-20.44L163-20.44Q161.08-20.44 160.08-19.48L160.08-19.48Q161.20-19.08 161.82-18.28Q162.44-17.48 162.44-16.40L162.44-16.40Q162.44-15.04 161.52-14.24Q160.60-13.44 159.28-13.44L159.28-13.44Q157.88-13.44 157.12-14.32Q156.36-15.20 156.36-16.52L156.36-16.52Q156.36-17.64 156.90-18.42Q157.44-19.20 158.56-19.88L158.56-19.88Q159.64-20.52 161.22-20.88Q162.80-21.24 164.68-21.24L164.68-21.24Q166.64-21.24 168.08-20.84Q169.52-20.44 170.48-19.48L170.48-19.48Q171.36-18.60 171.66-17.32Q171.96-16.04 171.96-13.84L171.96-13.84L171.96-2.96Q171.96-2 172.14-1.60Q172.32-1.20 172.84-1.20L172.84-1.20Q173.44-1.20 174.28-1.88L174.28-1.88L174.68-1.20Q172.88 0.28 170.28 0.28L170.28 0.28Q168.08 0.28 167.20-0.60Q166.32-1.48 166.28-2.96L166.28-2.96Q164.28 0.28 160.40 0.28L160.40 0.28ZM163.48-2.28Q165.04-2.28 166.20-3.92L166.20-3.92L166.20-12.12Q165.72-11.32 164.16-10.36L164.16-10.36Q162.60-9.36 161.80-8.36Q161-7.36 161-5.48L161-5.48Q161-3.84 161.68-3.06Q162.36-2.28 163.48-2.28L163.48-2.28Z M184-31.32L184-3.72Q184-2.08 184.56-1.46Q185.12-0.84 186.56-0.84L186.56-0.84L186.56 0Q182.40-0.16 181.20-0.16L181.20-0.16Q179.84-0.16 175.68 0L175.68 0L175.68-0.84Q177.08-0.84 177.66-1.46Q178.24-2.08 178.24-3.72L178.24-3.72L178.24-26.52Q178.24-28.36 177.66-29.20Q177.08-30.04 175.68-30.04L175.68-30.04L175.68-30.88Q176.96-30.76 178.16-30.76L178.16-30.76Q181.64-30.76 184-31.32L184-31.32Z M215.24-2.24L215.80-1.76Q214.72-0.52 213.48 0.02Q212.24 0.56 210.48 0.56L210.48 0.56Q208.16 0.56 206.82-0.42Q205.48-1.40 205.08-3.76L205.08-3.76L204.36-7.76Q203.84-10.68 203.10-12.06Q202.36-13.44 200.64-13.44L200.64-13.44L198.04-13.44L198.04-4.24Q198.04-2.72 198.26-2.04Q198.48-1.36 199.08-1.12Q199.68-0.88 201.04-0.80L201.04-0.80L201.04 0Q198.88-0.12 195-0.12L195-0.12Q190.72-0.12 188.68 0L188.68 0L188.68-0.80Q190-0.88 190.62-1.12Q191.24-1.36 191.46-2.04Q191.68-2.72 191.68-4.24L191.68-4.24L191.68-24.08Q191.68-25.60 191.46-26.28Q191.24-26.96 190.62-27.20Q190-27.44 188.68-27.52L188.68-27.52L188.68-28.32Q190.72-28.20 194.76-28.20L194.76-28.20L199.20-28.24Q200-28.28 201.04-28.28L201.04-28.28Q206.56-28.28 209.34-26.48Q212.12-24.68 212.12-21.32L212.12-21.32Q212.12-18.48 210.04-16.32Q207.96-14.16 203.16-13.60L203.16-13.60Q206.76-13.28 208.52-12.04Q210.28-10.80 210.80-8.32L210.80-8.32L211.72-4.20Q212.04-2.60 212.46-1.96Q212.88-1.32 213.64-1.32L213.64-1.32Q214.12-1.36 214.46-1.56Q214.80-1.76 215.24-2.24L215.24-2.24ZM200.52-27.52Q199.44-27.52 198.94-27.24Q198.44-26.96 198.24-26.24Q198.04-25.52 198.04-24.08L198.04-24.08L198.04-14.24L199.76-14.24Q203.04-14.24 204.26-15.98Q205.48-17.72 205.48-20.88L205.48-20.88Q205.48-24.16 204.32-25.84Q203.16-27.52 200.52-27.52L200.52-27.52Z M227.72-2.72Q231-2.72 233-5.92L233-5.92L233.72-5.68Q232.92-3.08 230.86-1.26Q228.80 0.56 225.72 0.56L225.72 0.56Q221.48 0.56 218.98-2.14Q216.48-4.84 216.48-10.12L216.48-10.12Q216.48-15.52 219.16-18.38Q221.84-21.24 226.28-21.24L226.28-21.24Q233.80-21.24 233.80-12.36L233.80-12.36L222.56-12.36Q222.52-11.76 222.52-10.48L222.52-10.48Q222.52-7.84 223.26-6.08Q224-4.32 225.18-3.52Q226.36-2.72 227.72-2.72L227.72-2.72ZM226.04-20.40Q224.60-20.40 223.66-18.62Q222.72-16.84 222.48-13.12L222.48-13.12L228.76-13.12Q228.84-16.28 228.14-18.34Q227.44-20.40 226.04-20.40L226.04-20.40Z M244.04-21.24Q245.56-21.24 246.84-20.86Q248.12-20.48 248.80-20L248.80-20Q249.20-19.72 249.52-19.72L249.52-19.72Q249.88-19.72 250.14-20.10Q250.40-20.48 250.48-21.20L250.48-21.20L251.32-21.20Q251.16-19.16 251.16-14.16L251.16-14.16L250.32-14.16Q249.96-16.80 248.74-18.58Q247.52-20.36 245.20-20.36L245.20-20.36Q244-20.36 243.22-19.68Q242.44-19 242.44-17.80L242.44-17.80Q242.44-16.44 243.36-15.46Q244.28-14.48 246.24-13.08L246.24-13.08L247.40-12.24Q249.84-10.40 251-8.96Q252.16-7.52 252.16-5.36L252.16-5.36Q252.16-3.60 251.14-2.24Q250.12-0.88 248.40-0.16Q246.68 0.56 244.60 0.56L244.60 0.56Q242.40 0.56 240.84-0.28L240.84-0.28Q239.56-0.92 239-1.12L239-1.12Q238.60-1.24 238.30-0.86Q238-0.48 237.84 0.28L237.84 0.28L237 0.28Q237.16-2 237.16-7.72L237.16-7.72L238-7.72Q238.80-0.36 243.40-0.36L243.40-0.36Q244.56-0.36 245.38-1.06Q246.20-1.76 246.20-3.20L246.20-3.20Q246.20-4.32 245.70-5.20Q245.20-6.08 244.44-6.76Q243.68-7.44 242.16-8.64L242.16-8.64Q240.36-10.08 239.42-10.96Q238.48-11.84 237.82-13.04Q237.16-14.24 237.16-15.72L237.16-15.72Q237.16-18.28 239.16-19.76Q241.16-21.24 244.04-21.24L244.04-21.24Z M266.36-2.72Q269.64-2.72 271.64-5.92L271.64-5.92L272.36-5.68Q271.56-3.08 269.50-1.26Q267.44 0.56 264.36 0.56L264.36 0.56Q260.12 0.56 257.62-2.14Q255.12-4.84 255.12-10.12L255.12-10.12Q255.12-15.52 257.80-18.38Q260.48-21.24 264.92-21.24L264.92-21.24Q272.44-21.24 272.44-12.36L272.44-12.36L261.20-12.36Q261.16-11.76 261.16-10.48L261.16-10.48Q261.16-7.84 261.90-6.08Q262.64-4.32 263.82-3.52Q265-2.72 266.36-2.72L266.36-2.72ZM264.68-20.40Q263.24-20.40 262.30-18.62Q261.36-16.84 261.12-13.12L261.12-13.12L267.40-13.12Q267.48-16.28 266.78-18.34Q266.08-20.40 264.68-20.40L264.68-20.40Z M288.28-21.24Q290.08-21.24 291-20.16Q291.92-19.08 291.92-17.56L291.92-17.56Q291.92-16.08 291.06-15.14Q290.20-14.20 288.80-14.20L288.80-14.20Q287.44-14.20 286.64-14.90Q285.84-15.60 285.84-16.76L285.84-16.76Q285.84-18.68 287.60-19.88L287.60-19.88Q287.44-19.92 287.12-19.92L287.12-19.92Q286.72-19.92 286.48-19.84L286.48-19.84Q284.96-19.60 283.90-18Q282.84-16.40 282.84-14.72L282.84-14.72L282.84-4.12Q282.84-2.28 283.74-1.56Q284.64-0.84 286.60-0.84L286.60-0.84L286.60 0Q286.04 0 285.68-0.04L285.68-0.04Q281.60-0.16 280.24-0.16L280.24-0.16Q279.16-0.16 275.32-0.04L275.32-0.04Q275 0 274.52 0L274.52 0L274.52-0.84Q275.96-0.84 276.52-1.46Q277.08-2.08 277.08-3.72L277.08-3.72L277.08-16.32Q277.08-18.16 276.52-19Q275.96-19.84 274.52-19.84L274.52-19.84L274.52-20.68Q275.80-20.56 277-20.56L277-20.56Q280.56-20.56 282.84-21.12L282.84-21.12L282.84-17.40Q283.60-19.12 285.04-20.18Q286.48-21.24 288.28-21.24L288.28-21.24Z M309.44-20.56Q311.48-20.56 312.52-20.68L312.52-20.68L312.52-19.88Q311.68-19.64 311.02-18.86Q310.36-18.08 309.76-16.44L309.76-16.44L303.92 0.08Q303.48 0.04 302.60 0.04L302.60 0.04Q301.76 0.04 301.32 0.08L301.32 0.08L294.20-17.60Q293.64-18.96 293.06-19.40Q292.48-19.84 291.88-19.84L291.88-19.84L291.88-20.68Q294.68-20.48 297.56-20.48L297.56-20.48Q300.08-20.48 302.76-20.68L302.76-20.68L302.76-19.84Q301.40-19.84 300.82-19.66Q300.24-19.48 300.24-18.68L300.24-18.68Q300.24-18.36 300.44-17.68L300.44-17.68L305-5.56L307.88-13.48Q308.52-15.36 308.52-16.72L308.52-16.72Q308.52-19.64 305.60-19.88L305.60-19.88L305.60-20.68Q307.44-20.56 309.44-20.56L309.44-20.56Z M324.68-2.72Q327.96-2.72 329.96-5.92L329.96-5.92L330.68-5.68Q329.88-3.08 327.82-1.26Q325.76 0.56 322.68 0.56L322.68 0.56Q318.44 0.56 315.94-2.14Q313.44-4.84 313.44-10.12L313.44-10.12Q313.44-15.52 316.12-18.38Q318.80-21.24 323.24-21.24L323.24-21.24Q330.76-21.24 330.76-12.36L330.76-12.36L319.52-12.36Q319.48-11.76 319.48-10.48L319.48-10.48Q319.48-7.84 320.22-6.08Q320.96-4.32 322.14-3.52Q323.32-2.72 324.68-2.72L324.68-2.72ZM323-20.40Q321.56-20.40 320.62-18.62Q319.68-16.84 319.44-13.12L319.44-13.12L325.72-13.12Q325.80-16.28 325.10-18.34Q324.40-20.40 323-20.40L323-20.40Z"></path></g>
</svg>
</g><g opacity="1" transform="rotate(0 50.891400000000004 0)">
<svg width="1.2104" height="58.9945" x="50.891400000000004" y="0" version="1.1" preserveAspectRatio="none" viewBox="0 0 1.2104 58.9945">
  <rect x="0" y="0" width="1.2104" height="58.9945" class="companyName shapeStroke-str" style="stroke-width:0;" rx="0px" ry="0px"></rect>
</svg>
</g></svg>